<svg width="651" height="998" viewBox="0 0 651 998" fill="none" xmlns="http://www.w3.org/2000/svg">
<g clip-path="url(#clip0_244_43)">
<g opacity="0.58" clip-path="url(#clip1_244_43)">
<path d="M0 832.46L3.63054 824.47L1195.53 1471.8L1191.9 1479.42L0 832.46Z" fill="white" fill-opacity="0.49"/>
<path d="M15.6104 797.6L19.2409 789.62L1211.15 1436.94L1207.52 1444.57L15.6104 797.6Z" fill="white" fill-opacity="0.49"/>
<path d="M31.2227 762.75L34.8532 754.76L1226.76 1402.09L1223.13 1409.71L31.2227 762.75Z" fill="white" fill-opacity="0.49"/>
<path d="M46.834 727.9L50.4645 719.91L1242.37 1366.87L1238.38 1374.86L46.834 727.9Z" fill="white" fill-opacity="0.49"/>
<path d="M62.082 693.04L66.0755 685.06L1257.98 1332.02L1253.99 1340.01L62.082 693.04Z" fill="white" fill-opacity="0.49"/>
<path d="M77.6934 658.19L81.6871 650.21L1273.59 1297.17L1269.6 1305.15L77.6934 658.19Z" fill="white" fill-opacity="0.49"/>
<path d="M93.3057 622.98L97.2994 615.35L1289.2 1262.31L1285.21 1270.3L93.3057 622.98Z" fill="white" fill-opacity="0.49"/>
<path d="M108.916 588.12L112.91 580.5L1304.81 1227.46L1300.82 1235.45L108.916 588.12Z" fill="white" fill-opacity="0.49"/>
<path d="M124.527 553.27L128.521 545.64L1320.43 1192.61L1316.43 1200.59L124.527 553.27Z" fill="white" fill-opacity="0.49"/>
<path d="M140.139 518.42L144.132 510.43L1336.04 1157.75L1332.04 1165.74L140.139 518.42Z" fill="white" fill-opacity="0.49"/>
<path d="M155.75 483.56L159.744 475.58L1351.65 1122.9L1347.65 1130.89L155.75 483.56Z" fill="white" fill-opacity="0.49"/>
<path d="M171.361 448.709L175.355 440.722L1366.9 1088.05L1363.27 1096.03L171.361 448.709Z" fill="white" fill-opacity="0.49"/>
<path d="M186.973 413.856L190.603 405.869L1382.51 1053.19L1378.88 1061.18L186.973 413.856Z" fill="white" fill-opacity="0.49"/>
<path d="M202.583 379.003L206.214 371.015L1398.12 1018.34L1394.49 1025.96L202.583 379.003Z" fill="white" fill-opacity="0.49"/>
<path d="M218.195 344.151L221.826 336.164L1413.73 983.49L1410.1 991.11L218.195 344.151Z" fill="white" fill-opacity="0.49"/>
<path d="M233.807 309.297L237.437 301.31L1429.34 948.27L1425.71 956.26L233.807 309.297Z" fill="white" fill-opacity="0.49"/>
<path d="M249.418 274.444L253.049 266.457L1444.95 913.42L1441.32 921.4L249.418 274.444Z" fill="white" fill-opacity="0.49"/>
<path d="M264.666 239.59L268.66 231.603L1460.56 878.56L1456.57 886.55L264.666 239.59Z" fill="white" fill-opacity="0.49"/>
<path d="M280.277 204.374L284.271 196.75L1476.18 843.71L1472.18 851.7L280.277 204.374Z" fill="white" fill-opacity="0.49"/>
<path d="M295.889 169.522L299.882 161.898L1491.79 808.86L1487.79 816.85L295.889 169.522Z" fill="white" fill-opacity="0.49"/>
<path d="M311.499 134.669L315.493 127.044L1507.4 774.01L1503.4 781.99L311.499 134.669Z" fill="white" fill-opacity="0.49"/>
<path d="M327.111 99.8151L331.105 91.8281L1523.01 739.15L1519.02 747.14L327.111 99.8151Z" fill="white" fill-opacity="0.49"/>
<path d="M342.723 64.9611L346.716 56.9741L1538.62 704.3L1534.63 712.29L342.723 64.9611Z" fill="white" fill-opacity="0.49"/>
<path d="M358.334 30.1091L362.328 22.1221L1554.23 669.45L1550.24 677.43L358.334 30.1091Z" fill="white" fill-opacity="0.49"/>
<path d="M373.945 -4.74396L377.939 -12.731L1569.84 634.59L1565.85 642.58L373.945 -4.74396Z" fill="white" fill-opacity="0.49"/>
<path d="M389.556 -39.597L393.186 -47.585L1585.09 599.74L1581.46 607.36L389.556 -39.597Z" fill="white" fill-opacity="0.49"/>
<path d="M405.168 -74.451L408.799 -82.438L1600.7 564.89L1597.07 572.51L405.168 -74.451Z" fill="white" fill-opacity="0.49"/>
<path d="M420.779 -109.304L424.41 -117.292L1616.31 530.03L1612.68 537.66L420.779 -109.304Z" fill="white" fill-opacity="0.49"/>
<path d="M436.391 -144.156L440.021 -152.143L1631.93 494.82L1628.3 502.81L436.391 -144.156Z" fill="white" fill-opacity="0.49"/>
<path d="M452.002 -179.01L455.632 -186.997L1647.54 459.965L1643.91 467.952L452.002 -179.01Z" fill="white" fill-opacity="0.49"/>
<path d="M467.612 -213.863L471.243 -221.85L1663.15 425.111L1659.15 433.098L467.612 -213.863Z" fill="white" fill-opacity="0.49"/>
<path d="M482.861 -249.08L486.855 -256.704L1678.76 390.258L1674.77 398.245L482.861 -249.08Z" fill="white" fill-opacity="0.49"/>
<path d="M498.472 -283.933L502.465 -291.557L1694.37 355.404L1690.38 363.391L498.472 -283.933Z" fill="white" fill-opacity="0.49"/>
<path d="M515.536 -316.97L519.167 -324.957L1711.07 322.004L1707.44 329.991L515.536 -316.97Z" fill="white" fill-opacity="0.49"/>
<path d="M532.236 -350.372L536.23 -358.359L1727.77 288.602L1724.14 296.59L532.236 -350.372Z" fill="white" fill-opacity="0.49"/>
<path d="M548.938 -383.771L552.931 -391.759L1744.84 255.566L1740.84 263.19L548.938 -383.771Z" fill="white" fill-opacity="0.49"/>
<path d="M566 -417.173L569.631 -425.16L1761.54 222.164L1757.54 229.788L566 -417.173Z" fill="white" fill-opacity="0.49"/>
<path d="M582.701 -450.575L586.332 -458.562L1778.24 188.762L1774.61 196.75L582.701 -450.575Z" fill="white" fill-opacity="0.49"/>
<path d="M599.402 -483.975L603.396 -491.962L1795.3 155.363L1791.31 163.35L599.402 -483.975Z" fill="white" fill-opacity="0.49"/>
<path d="M616.103 -517.376L620.096 -525L1812 121.961L1808.01 129.948L616.103 -517.376Z" fill="white" fill-opacity="0.49"/>
</g>
</g>
<defs>
<clipPath id="clip0_244_43">
<rect width="651" height="998" fill="white"/>
</clipPath>
<clipPath id="clip1_244_43">
<rect width="992" height="2005" fill="white" transform="translate(0 -525)"/>
</clipPath>
</defs>
</svg>
