<svg width="68" height="68" viewBox="0 0 68 68" fill="none" xmlns="http://www.w3.org/2000/svg">
<g clip-path="url(#clip0_32_204)">
<path fill-rule="evenodd" clip-rule="evenodd" d="M20.8935 30.3844L22.4771 30.0997C22.6494 29.5895 22.8568 29.0918 23.0976 28.6101L22.1781 27.282C21.9255 26.9189 21.8086 26.4786 21.8477 26.0381C21.8868 25.5975 22.0796 25.1847 22.3922 24.8718L24.8799 22.386C25.1933 22.074 25.6064 21.8821 26.047 21.844C26.4875 21.8058 26.9275 21.9238 27.2898 22.1773L28.6106 23.0882C29.0944 22.8496 29.5936 22.6435 30.1049 22.4714L30.3904 20.8869C30.4683 20.4518 30.6971 20.0582 31.0368 19.7753C31.3764 19.4924 31.8049 19.3384 32.2469 19.3405L35.7639 19.3405C36.2056 19.3387 36.6338 19.4929 36.9731 19.7757C37.3124 20.0586 37.541 20.4521 37.6188 20.8869L37.9047 22.4719C38.416 22.6441 38.9152 22.8501 39.3991 23.0887L40.7198 22.1779C41.0821 21.9244 41.5221 21.8064 41.9626 21.8445C42.4032 21.8827 42.8163 22.0745 43.1297 22.3865L45.6171 24.8718C45.9298 25.1847 46.1225 25.5974 46.1617 26.0379C46.2009 26.4785 46.084 26.9188 45.8315 27.2819L44.9131 28.61C45.1531 29.0919 45.3601 29.5896 45.5327 30.0996L47.1162 30.3842C47.5522 30.4622 47.9467 30.6913 48.2304 31.0314C48.5142 31.3715 48.6689 31.8007 48.6674 32.2436L48.6674 35.7545C48.6689 36.1974 48.5142 36.6266 48.2304 36.9667C47.9467 37.3068 47.5522 37.5359 47.1162 37.6139L45.5327 37.8985C45.3601 38.4115 45.1531 38.9124 44.9131 39.3975L45.8315 40.7164C46.084 41.0795 46.2009 41.5198 46.1617 41.9603C46.1225 42.4008 45.9298 42.8136 45.6171 43.1264L43.1293 45.6121C42.8158 45.9233 42.4036 46.1154 41.9637 46.1553C41.5237 46.1952 41.0837 46.0803 40.7194 45.8304L39.3987 44.9101C38.9149 45.1487 38.4156 45.3547 37.9043 45.5267L37.6188 47.1113C37.541 47.5461 37.3124 47.9396 36.9731 48.2225C36.6338 48.5054 36.2056 48.6595 35.7639 48.6578L32.2469 48.6578C31.805 48.6597 31.3766 48.5057 31.0371 48.2228C30.6976 47.9399 30.4688 47.5463 30.391 47.1113L30.1054 45.5267C29.5941 45.3547 29.0949 45.1487 28.6111 44.9101L27.2903 45.8304C26.926 46.0803 26.486 46.1952 26.0461 46.1553C25.6061 46.1154 25.1939 45.9233 24.8804 45.6121L22.3922 43.1267C22.0795 42.8138 21.8867 42.4011 21.8475 41.9606C21.8083 41.52 21.9252 41.0797 22.1777 40.7166L23.0972 39.3978C22.8563 38.9129 22.649 38.412 22.4767 37.8988L20.8931 37.6141C20.4571 37.5362 20.0625 37.3071 19.7788 36.967C19.495 36.6269 19.3403 36.1977 19.3418 35.7548L19.3418 32.244C19.3403 31.8011 19.495 31.3718 19.7788 31.0318C20.0625 30.6917 20.4571 30.4625 20.8931 30.3846L20.8935 30.3844ZM15.1106 63.3351C15.1104 63.6686 15.176 63.9988 15.3034 64.3069C15.4309 64.615 15.6178 64.895 15.8535 65.1309C16.0892 65.3667 16.369 65.5538 16.6771 65.6815C16.9851 65.8092 17.3152 65.875 17.6487 65.875L50.3604 65.875C50.6938 65.8751 51.024 65.8094 51.3321 65.6818C51.6402 65.5542 51.9201 65.3672 52.1558 65.1314C52.3916 64.8956 52.5786 64.6156 52.7062 64.3075C52.8337 63.9995 52.8993 63.6693 52.8992 63.3358L52.8992 4.66269C52.8975 3.99055 52.6294 3.3465 52.1537 2.87166C51.678 2.39682 51.0335 2.12992 50.3613 2.12943L45.5215 2.12943C45.1563 2.28123 44.7975 2.81248 44.7975 3.23004C44.7975 3.61519 44.7215 3.99655 44.574 4.35234C44.4266 4.70813 44.2104 5.03137 43.938 5.30362C43.6656 5.57587 43.3422 5.79178 42.9863 5.93901C42.6304 6.08625 42.249 6.16194 41.8638 6.16175L25.8168 6.16175C25.4317 6.16185 25.0503 6.0861 24.6945 5.93883C24.3387 5.79155 24.0154 5.57563 23.743 5.30339C23.4706 5.03116 23.2545 4.70794 23.1071 4.35219C22.9596 3.99645 22.8837 3.61514 22.8836 3.23004C22.8836 2.81248 22.5809 2.29066 22.2461 2.12943L17.6492 2.12943C16.977 2.12988 16.3325 2.39677 15.8567 2.87162C15.381 3.34646 15.1129 3.99053 15.1112 4.66269L15.1112 63.3358L15.1106 63.3351ZM17.6487 0.00402831C16.4129 0.00444979 15.2278 0.495289 14.3536 1.36876C13.4795 2.24223 12.9877 3.42693 12.9863 4.66269L12.9863 63.3358C12.9873 64.5722 13.4788 65.7577 14.3529 66.6321C15.227 67.5066 16.4123 67.9985 17.6487 68L50.3604 68C51.597 67.9987 52.7825 67.5068 53.6568 66.6324C54.5312 65.7579 55.023 64.5724 55.0242 63.3358L55.0242 4.66269C55.0226 3.42686 54.5306 2.24219 53.6563 1.36875C52.782 0.495309 51.5969 0.00448462 50.3611 0.00402832L17.6487 0.00402831ZM28.9355 33.9992C28.9349 35.002 29.2317 35.9824 29.7884 36.8165C30.3451 37.6505 31.1367 38.3008 32.0629 38.6849C32.9892 39.069 34.0086 39.1698 34.9922 38.9746C35.9758 38.7793 36.8793 38.2967 37.5886 37.5878C38.2978 36.8789 38.7809 35.9756 38.9768 34.9922C39.1726 34.0087 39.0724 32.9892 38.6887 32.0628C38.3051 31.1363 37.6553 30.3444 36.8216 29.7872C35.9878 29.2301 35.0076 28.9327 34.0048 28.9327C32.6609 28.933 31.3721 29.4668 30.4215 30.4168C29.471 31.3668 28.9365 32.6553 28.9355 33.9992ZM41.1995 33.9992C41.2001 32.5761 40.7786 31.1848 39.9884 30.0013C39.1982 28.8177 38.0747 27.8951 36.7601 27.3501C35.4455 26.8051 33.9988 26.6622 32.603 26.9395C31.2071 27.2168 29.9249 27.9018 28.9184 28.9079C27.9119 29.9139 27.2264 31.1959 26.9485 32.5916C26.6707 33.9874 26.813 35.4341 27.3575 36.7489C27.9019 38.0638 28.8241 39.1876 30.0073 39.9783C31.1905 40.769 32.5817 41.191 34.0048 41.191C35.9119 41.1893 37.7404 40.4311 39.0893 39.0829C40.4381 37.7346 41.197 35.9064 41.1995 33.9992Z" fill="#AC0091"/>
</g>
<defs>
<clipPath id="clip0_32_204">
<rect width="68" height="68" fill="white" transform="matrix(-1 -1.70662e-10 0 1 68 0)"/>
</clipPath>
</defs>
</svg>
