<svg width="25" height="25" viewBox="0 0 25 25" fill="none" xmlns="http://www.w3.org/2000/svg">
<g clip-path="url(#clip0_17_268)">
<rect width="25" height="25" fill="black"/>
<path d="M0 25C0 25 0.225943 24.7089 0.67783 24.1268C1.12972 23.5446 1.7278 22.7684 2.47208 21.7982C3.24295 20.8279 4.09356 19.7283 5.02391 18.4994C5.98085 17.2704 6.95108 16.0091 7.93459 14.7154C8.94469 13.4217 9.91492 12.1604 10.8453 10.9314C11.8022 9.70246 12.6528 8.60285 13.3972 7.6326C14.168 6.66236 14.7794 5.88616 15.2313 5.30401C15.6832 4.72186 15.9091 4.43079 15.9091 4.43079L16.5471 5.72445H5.98085C5.42264 5.72445 4.83784 5.62743 4.22647 5.43338C3.64167 5.21777 3.13662 4.93747 2.71132 4.5925C2.31259 4.22596 2.11323 3.82708 2.11323 3.39586V0H7.41625V0.452784C7.41625 0.927126 7.50929 1.17508 7.69536 1.19664C7.88143 1.19664 8.2137 1.19664 8.69217 1.19664H25L9.52949 20.9897L9.21051 20.4722H24.9601V25H0Z" fill="#AC0091"/>
</g>
<defs>
<clipPath id="clip0_17_268">
<rect width="25" height="25" fill="white"/>
</clipPath>
</defs>
</svg>
