<svg width="120" height="120" viewBox="0 0 120 120" fill="none" xmlns="http://www.w3.org/2000/svg">
<g clip-path="url(#clip0_1_719)">
<rect width="120" height="120" fill="white"/>
<path d="M0 120C0 120 1.08453 118.603 3.25358 115.809C5.42264 113.014 8.29344 109.288 11.866 104.631C15.5662 99.9741 19.6491 94.696 24.1148 88.7969C28.7081 82.8978 33.3652 76.8435 38.086 70.6339C42.9345 64.4243 47.5916 58.37 52.0573 52.4709C56.6506 46.5718 60.7335 41.2937 64.3063 36.6365C68.0065 31.9793 70.9411 28.2536 73.1102 25.4593C75.2792 22.6649 76.3637 21.2678 76.3637 21.2678L79.4259 27.4774H28.7081C26.0287 27.4774 23.2216 27.0117 20.287 26.0802C17.48 25.0453 15.0558 23.6999 13.0143 22.044C11.1005 20.2846 10.1435 18.37 10.1435 16.3001L9.6 0H35.598V2.17336C35.598 4.4502 36.0446 5.64037 36.9377 5.74387C37.8309 5.74387 39.4258 5.74387 41.7224 5.74387H120L45.7415 100.75L44.2104 98.2665H120.055V120H0Z" fill="#7E84A3"/>
</g>
<defs>
<clipPath id="clip0_1_719">
<rect width="120" height="120" fill="white"/>
</clipPath>
</defs>
</svg>
