<svg width="1026" height="800" viewBox="0 0 1026 800" fill="none" xmlns="http://www.w3.org/2000/svg">
<path d="M522.282 263.512C249.131 245.196 60.2812 80.558 0 0.52832L1027.81 1.14711V800C989.263 793.565 913.062 742.453 879.779 717.701C826.015 678.099 772.827 547.264 788.31 467.712C807.561 368.801 766.432 321.885 741.528 303.115C702.427 261.532 591.396 265.128 522.282 263.512Z" fill="#AC0091" fill-opacity="0.21"/>
<path d="M629.594 262.011C371.387 191.164 216.955 19.1508 172.015 -58L1154.42 153.289L1027.81 800C991.982 786.886 927.24 729.88 899.348 703.017C854.23 659.931 823.979 554.859 851.532 481.879C882.577 399.653 853.731 359.338 832.9 339.035C802.113 297.353 703.86 282.388 629.594 262.011Z" fill="#AC0091" fill-opacity="0.21" stroke="#AC0091" stroke-opacity="0.6" stroke-width="2" stroke-linecap="round" stroke-linejoin="round"/>
</svg>
