<svg width="166" height="45" viewBox="0 0 166 45" fill="none" xmlns="http://www.w3.org/2000/svg">
<path d="M67.7347 1L84.7057 31.2857L78.0751 30.3143L93.4674 1H107.044L80.5221 45L54 1H67.7347ZM130.277 15.9714L129.961 18.0857L131.698 16.4857L150.642 1H165.482L141.486 19.8571L165.561 43.0571H151.037L133.118 25.1143L130.277 27.1714V43.0571H118.673V1H130.277V15.9714Z" fill="white"/>
<path d="M0 44C0 44 0.388622 43.4877 1.16587 42.4631C1.94311 41.4386 2.97182 40.0724 4.25198 38.3648C5.57787 36.6572 7.04092 34.7219 8.64113 32.5589C10.2871 30.3959 11.9558 28.1759 13.6475 25.8991C15.3849 23.6223 17.0537 21.4023 18.6539 19.2393C20.2998 17.0763 21.7628 15.141 23.0431 13.4334C24.369 11.7257 25.4206 10.3596 26.1978 9.33506C26.975 8.31048 27.3637 7.79819 27.3637 7.79819L28.461 10.075H10.2871C9.32693 10.075 8.32109 9.90427 7.26952 9.56275C6.26368 9.18327 5.39499 8.68996 4.66347 8.0828C3.97766 7.43769 3.63476 6.73567 3.63476 5.97672V0H12.756V0.796899C12.756 1.63174 12.916 2.06814 13.236 2.10608C13.5561 2.10608 14.1276 2.10608 14.9505 2.10608H43L16.3907 36.9418L15.8421 36.031H42.9314V44H0Z" fill="#D64BC0"/>
</svg>
