<svg xmlns="http://www.w3.org/2000/svg" xmlns:xlink="http://www.w3.org/1999/xlink" xmlns:svgjs="http://svgjs.com/svgjs" version="1.1" width="512" height="512" x="0" y="0" viewBox="0 0 512 512" style="enable-background:new 0 0 512 512" xml:space="preserve" class=""><g><g id="Prohibited_2_"><g><path d="m96 452v-392c0-22.091 17.909-40 40-40h-60c-22.091 0-40 17.909-40 40v392c0 22.091 17.909 40 40 40h60c-22.091 0-40-17.909-40-40z" fill="#cee1f2" data-original="#cee1f2" class=""/></g><path d="m496 392c0-66.168-53.832-120-120-120-66.156 0-120 53.844-120 120 0 66.168 53.832 120 120 120 66.156 0 120-53.844 120-120zm-40 0c0 14.815-4.063 28.693-11.111 40.604l-109.493-109.493c11.911-7.049 25.789-11.111 40.604-11.111 44.112 0 80 35.888 80 80zm-160 0c0-14.815 4.063-28.693 11.111-40.604l109.494 109.494c-11.912 7.047-25.79 11.11-40.605 11.11-44.112 0-80-35.888-80-80z" fill="#ff5cf4" data-original="#ff5cf4" class=""/><g fill="#0023c4"><path d="m276 0h-200c-33.084 0-60 26.916-60 60v392c0 33.084 26.916 60 60 60h150.396c11.046 0 20-8.954 20-20s-8.954-20-20-20h-150.396c-11.028 0-20-8.972-20-20v-392c0-11.028 8.972-20 20-20h140v20c0 33.084 26.916 60 60 60h60v93.104c0 11.046 8.954 20 20 20s20-8.954 20-20v-113.104c0-55.14-44.859-100-100-100zm-20 60v-20h20c26.073 0 48.303 16.722 56.56 40h-56.56c-11.028 0-20-8.972-20-20z" fill="#0023c4" data-original="#0023c4" class=""/><path d="m276 192h-160c-11.046 0-20 8.954-20 20s8.954 20 20 20h160c11.046 0 20-8.954 20-20s-8.954-20-20-20z" fill="#0023c4" data-original="#0023c4" class=""/><path d="m236 292c0-11.046-8.954-20-20-20h-100c-11.046 0-20 8.954-20 20s8.954 20 20 20h100c11.046 0 20-8.954 20-20z" fill="#0023c4" data-original="#0023c4" class=""/><path d="m116 352c-11.046 0-20 8.954-20 20s8.954 20 20 20h80c11.046 0 20-8.954 20-20s-8.954-20-20-20z" fill="#0023c4" data-original="#0023c4" class=""/></g></g></g></svg>