<svg width="20" height="20" viewBox="0 0 20 20" fill="none" xmlns="http://www.w3.org/2000/svg">
<path fill-rule="evenodd" clip-rule="evenodd" d="M7.66611 0.939098C7.80456 1.07776 7.89922 1.25405 7.93833 1.44605C7.97744 1.63806 7.95929 1.83733 7.88611 2.0191C7.30065 3.47415 7.15581 5.06919 7.4696 6.6059C7.78339 8.1426 8.54196 9.55317 9.651 10.6622C10.76 11.7712 12.1706 12.5298 13.7073 12.8436C15.244 13.1574 16.8391 13.0126 18.2941 12.4271C18.4759 12.3541 18.6751 12.336 18.867 12.3752C19.059 12.4144 19.2352 12.5092 19.3737 12.6476C19.5123 12.7861 19.6072 12.9622 19.6465 13.1541C19.6859 13.346 19.668 13.5453 19.5951 13.7271C18.8506 15.5796 17.5688 17.167 15.9147 18.2849C14.2605 19.4028 12.3096 20.0002 10.3131 20.0001C4.79011 20.0001 0.31311 15.5231 0.31311 10.0001C0.31311 5.7931 2.91111 2.1951 6.58611 0.718098C6.76788 0.644923 6.96715 0.626763 7.15916 0.665876C7.35116 0.704988 7.52745 0.800648 7.66611 0.939098Z" fill="#EDB903"/>
</svg>
