<svg width="29" height="28" viewBox="0 0 29 28" fill="none" xmlns="http://www.w3.org/2000/svg">
<path fill-rule="evenodd" clip-rule="evenodd" d="M14.3131 0C14.6844 0 15.0405 0.147499 15.3031 0.41005C15.5656 0.672601 15.7131 1.0287 15.7131 1.4V2.8C15.7131 3.1713 15.5656 3.5274 15.3031 3.78995C15.0405 4.0525 14.6844 4.2 14.3131 4.2C13.9418 4.2 13.5857 4.0525 13.3232 3.78995C13.0606 3.5274 12.9131 3.1713 12.9131 2.8V1.4C12.9131 1.21615 12.9493 1.0341 13.0197 0.864243C13.09 0.694387 13.1932 0.540052 13.3232 0.41005C13.4532 0.280048 13.6075 0.176925 13.7774 0.106569C13.9472 0.036212 14.1293 0 14.3131 0ZM4.41311 4.1C4.54311 3.96998 4.69746 3.86685 4.86732 3.79648C5.03719 3.72612 5.21925 3.6899 5.40311 3.6899C5.58697 3.6899 5.76903 3.72612 5.9389 3.79648C6.10877 3.86685 6.26311 3.96998 6.39311 4.1L7.38311 5.09C7.51312 5.22001 7.61625 5.37435 7.68661 5.54422C7.75697 5.71408 7.79318 5.89614 7.79318 6.08C7.79318 6.26386 7.75697 6.44592 7.68661 6.61578C7.61625 6.78565 7.51312 6.93999 7.38311 7.07C7.2531 7.20001 7.09876 7.30314 6.92889 7.3735C6.75903 7.44386 6.57697 7.48007 6.39311 7.48007C6.20925 7.48007 6.02719 7.44386 5.85733 7.3735C5.68746 7.30314 5.53312 7.20001 5.40311 7.07L4.41311 6.08C4.28309 5.95 4.17996 5.79565 4.10959 5.62579C4.03923 5.45592 4.00301 5.27386 4.00301 5.09C4.00301 4.90614 4.03923 4.72408 4.10959 4.55421C4.17996 4.38435 4.28309 4.23 4.41311 4.1ZM24.2131 4.1C24.3431 4.23 24.4463 4.38435 24.5166 4.55421C24.587 4.72408 24.6232 4.90614 24.6232 5.09C24.6232 5.27386 24.587 5.45592 24.5166 5.62579C24.4463 5.79565 24.3431 5.95 24.2131 6.08L23.2231 7.07C22.9605 7.33256 22.6044 7.48007 22.2331 7.48007C21.8618 7.48007 21.5057 7.33256 21.2431 7.07C20.9805 6.80744 20.833 6.45132 20.833 6.08C20.833 5.70868 20.9805 5.35256 21.2431 5.09L22.2331 4.1C22.3631 3.96998 22.5175 3.86685 22.6873 3.79648C22.8572 3.72612 23.0392 3.6899 23.2231 3.6899C23.407 3.6899 23.589 3.72612 23.7589 3.79648C23.9288 3.86685 24.0831 3.96998 24.2131 4.1ZM7.31311 14C7.31311 12.1435 8.05061 10.363 9.36336 9.05025C10.6761 7.7375 12.4566 7 14.3131 7C16.1696 7 17.9501 7.7375 19.2629 9.05025C20.5756 10.363 21.3131 12.1435 21.3131 14C21.3131 15.8565 20.5756 17.637 19.2629 18.9497C17.9501 20.2625 16.1696 21 14.3131 21C12.4566 21 10.6761 20.2625 9.36336 18.9497C8.05061 17.637 7.31311 15.8565 7.31311 14ZM0.31311 14C0.31311 13.6287 0.46061 13.2726 0.723161 13.0101C0.985712 12.7475 1.34181 12.6 1.71311 12.6H3.11311C3.29696 12.6 3.47901 12.6362 3.64887 12.7066C3.81872 12.7769 3.97306 12.88 4.10306 13.0101C4.23306 13.1401 4.33619 13.2944 4.40654 13.4642C4.4769 13.6341 4.51311 13.8161 4.51311 14C4.51311 14.1839 4.4769 14.3659 4.40654 14.5358C4.33619 14.7056 4.23306 14.8599 4.10306 14.99C3.97306 15.12 3.81872 15.2231 3.64887 15.2934C3.47901 15.3638 3.29696 15.4 3.11311 15.4H1.71311C1.34181 15.4 0.985712 15.2525 0.723161 14.99C0.46061 14.7274 0.31311 14.3713 0.31311 14ZM24.1131 14C24.1131 13.6287 24.2606 13.2726 24.5232 13.0101C24.7857 12.7475 25.1418 12.6 25.5131 12.6H26.9131C27.097 12.6 27.279 12.6362 27.4489 12.7066C27.6187 12.7769 27.7731 12.88 27.9031 13.0101C28.0331 13.1401 28.1362 13.2944 28.2065 13.4642C28.2769 13.6341 28.3131 13.8161 28.3131 14C28.3131 14.1839 28.2769 14.3659 28.2065 14.5358C28.1362 14.7056 28.0331 14.8599 27.9031 14.99C27.7731 15.12 27.6187 15.2231 27.4489 15.2934C27.279 15.3638 27.097 15.4 26.9131 15.4H25.5131C25.1418 15.4 24.7857 15.2525 24.5232 14.99C24.2606 14.7274 24.1131 14.3713 24.1131 14ZM21.2431 20.93C21.3731 20.8 21.5275 20.6968 21.6973 20.6265C21.8672 20.5561 22.0492 20.5199 22.2331 20.5199C22.417 20.5199 22.599 20.5561 22.7689 20.6265C22.9388 20.6968 23.0931 20.8 23.2231 20.93L24.2131 21.92C24.3431 22.05 24.4462 22.2044 24.5166 22.3742C24.587 22.5441 24.6232 22.7261 24.6232 22.91C24.6232 23.0939 24.587 23.2759 24.5166 23.4458C24.4462 23.6156 24.3431 23.77 24.2131 23.9C24.0831 24.03 23.9288 24.1331 23.7589 24.2035C23.589 24.2739 23.407 24.3101 23.2231 24.3101C23.0392 24.3101 22.8572 24.2739 22.6873 24.2035C22.5175 24.1331 22.3631 24.03 22.2331 23.9L21.2431 22.91C21.1131 22.78 21.01 22.6257 20.9396 22.4558C20.8692 22.2859 20.833 22.1039 20.833 21.92C20.833 21.7361 20.8692 21.5541 20.9396 21.3842C21.01 21.2143 21.1131 21.06 21.2431 20.93ZM5.40311 20.93C5.66567 20.6674 6.02179 20.5199 6.39311 20.5199C6.76443 20.5199 7.12055 20.6674 7.38311 20.93C7.64567 21.1926 7.79318 21.5487 7.79318 21.92C7.79318 22.2913 7.64567 22.6474 7.38311 22.91L6.39311 23.9C6.2631 24.03 6.10876 24.1331 5.93889 24.2035C5.76903 24.2739 5.58697 24.3101 5.40311 24.3101C5.21925 24.3101 5.03719 24.2739 4.86733 24.2035C4.69746 24.1331 4.54312 24.03 4.41311 23.9C4.2831 23.77 4.17997 23.6156 4.10961 23.4458C4.03925 23.2759 4.00304 23.0939 4.00304 22.91C4.00304 22.7261 4.03925 22.5441 4.10961 22.3742C4.17997 22.2044 4.2831 22.05 4.41311 21.92L5.40311 20.93ZM14.3131 23.8C14.6844 23.8 15.0405 23.9475 15.3031 24.2101C15.5656 24.4726 15.7131 24.8287 15.7131 25.2V26.6C15.7131 26.9713 15.5656 27.3274 15.3031 27.5899C15.0405 27.8525 14.6844 28 14.3131 28C13.9418 28 13.5857 27.8525 13.3232 27.5899C13.0606 27.3274 12.9131 26.9713 12.9131 26.6V25.2C12.9131 24.8287 13.0606 24.4726 13.3232 24.2101C13.5857 23.9475 13.9418 23.8 14.3131 23.8Z" fill="#EDB903"/>
</svg>
