<svg width="12" height="13" viewBox="0 0 12 13" fill="none" xmlns="http://www.w3.org/2000/svg">
<path fill-rule="evenodd" clip-rule="evenodd" d="M6 0.895996C6.15913 0.895996 6.31174 0.958115 6.42426 1.06869C6.53679 1.17926 6.6 1.32923 6.6 1.4856V2.07521C6.6 2.23158 6.53679 2.38155 6.42426 2.49212C6.31174 2.60269 6.15913 2.66481 6 2.66481C5.84087 2.66481 5.68826 2.60269 5.57574 2.49212C5.46321 2.38155 5.4 2.23158 5.4 2.07521V1.4856C5.4 1.40817 5.41552 1.3315 5.44567 1.25997C5.47583 1.18844 5.52002 1.12344 5.57574 1.06869C5.63145 1.01394 5.69759 0.970508 5.77039 0.940877C5.84319 0.911247 5.92121 0.895996 6 0.895996ZM1.75714 2.6227C1.81286 2.56794 1.87901 2.52451 1.9518 2.49487C2.0246 2.46524 2.10263 2.44998 2.18143 2.44998C2.26023 2.44998 2.33825 2.46524 2.41105 2.49487C2.48385 2.52451 2.55 2.56794 2.60571 2.6227L3.03 3.03963C3.08572 3.09439 3.12992 3.15939 3.16007 3.23092C3.19022 3.30246 3.20574 3.37914 3.20574 3.45657C3.20574 3.534 3.19022 3.61067 3.16007 3.68221C3.12992 3.75375 3.08572 3.81875 3.03 3.8735C2.97428 3.92826 2.90813 3.97169 2.83534 4.00132C2.76254 4.03095 2.68451 4.0462 2.60571 4.0462C2.52692 4.0462 2.44889 4.03095 2.37609 4.00132C2.30329 3.97169 2.23715 3.92826 2.18143 3.8735L1.75714 3.45657C1.70142 3.40182 1.65722 3.33682 1.62706 3.26528C1.59691 3.19374 1.58139 3.11707 1.58139 3.03963C1.58139 2.9622 1.59691 2.88552 1.62706 2.81399C1.65722 2.74245 1.70142 2.67745 1.75714 2.6227ZM10.2429 2.6227C10.2986 2.67745 10.3428 2.74245 10.3729 2.81399C10.4031 2.88552 10.4186 2.9622 10.4186 3.03963C10.4186 3.11707 10.4031 3.19374 10.3729 3.26528C10.3428 3.33682 10.2986 3.40182 10.2429 3.45657L9.81857 3.8735C9.70604 3.98408 9.55342 4.0462 9.39429 4.0462C9.23515 4.0462 9.08253 3.98408 8.97 3.8735C8.85747 3.76292 8.79426 3.61295 8.79426 3.45657C8.79426 3.30019 8.85747 3.15021 8.97 3.03963L9.39429 2.6227C9.45 2.56794 9.51615 2.52451 9.58895 2.49487C9.66175 2.46524 9.73977 2.44998 9.81857 2.44998C9.89737 2.44998 9.9754 2.46524 10.0482 2.49487C10.121 2.52451 10.1871 2.56794 10.2429 2.6227ZM3 6.79205C3 6.01018 3.31607 5.26034 3.87868 4.70748C4.44129 4.15462 5.20435 3.84402 6 3.84402C6.79565 3.84402 7.55871 4.15462 8.12132 4.70748C8.68393 5.26034 9 6.01018 9 6.79205C9 7.57392 8.68393 8.32376 8.12132 8.87662C7.55871 9.42948 6.79565 9.74008 6 9.74008C5.20435 9.74008 4.44129 9.42948 3.87868 8.87662C3.31607 8.32376 3 7.57392 3 6.79205ZM0 6.79205C0 6.63568 0.0632141 6.48571 0.175736 6.37514C0.288258 6.26456 0.44087 6.20244 0.6 6.20244H1.2C1.27879 6.20244 1.35681 6.2177 1.42961 6.24733C1.50241 6.27696 1.56855 6.32039 1.62426 6.37514C1.67998 6.42989 1.72417 6.49488 1.75433 6.56642C1.78448 6.63795 1.8 6.71462 1.8 6.79205C1.8 6.86948 1.78448 6.94615 1.75433 7.01768C1.72417 7.08922 1.67998 7.15421 1.62426 7.20896C1.56855 7.26371 1.50241 7.30714 1.42961 7.33677C1.35681 7.36641 1.27879 7.38165 1.2 7.38165H0.6C0.44087 7.38165 0.288258 7.31954 0.175736 7.20896C0.0632141 7.09839 0 6.94842 0 6.79205ZM10.2 6.79205C10.2 6.63568 10.2632 6.48571 10.3757 6.37514C10.4883 6.26456 10.6409 6.20244 10.8 6.20244H11.4C11.4788 6.20244 11.5568 6.2177 11.6296 6.24733C11.7024 6.27696 11.7685 6.32039 11.8243 6.37514C11.88 6.42989 11.9242 6.49488 11.9543 6.56642C11.9845 6.63795 12 6.71462 12 6.79205C12 6.86948 11.9845 6.94615 11.9543 7.01768C11.9242 7.08922 11.88 7.15421 11.8243 7.20896C11.7685 7.26371 11.7024 7.30714 11.6296 7.33677C11.5568 7.36641 11.4788 7.38165 11.4 7.38165H10.8C10.6409 7.38165 10.4883 7.31954 10.3757 7.20896C10.2632 7.09839 10.2 6.94842 10.2 6.79205ZM8.97 9.7106C9.02572 9.65584 9.09186 9.6124 9.16466 9.58277C9.23746 9.55314 9.31549 9.53788 9.39429 9.53788C9.47308 9.53788 9.55111 9.55314 9.62391 9.58277C9.69671 9.6124 9.76286 9.65584 9.81857 9.7106L10.2429 10.1275C10.2986 10.1823 10.3428 10.2473 10.3729 10.3188C10.4031 10.3904 10.4186 10.467 10.4186 10.5445C10.4186 10.6219 10.4031 10.6986 10.3729 10.7701C10.3428 10.8416 10.2986 10.9066 10.2429 10.9614C10.1871 11.0162 10.121 11.0596 10.0482 11.0892C9.97539 11.1189 9.89737 11.1341 9.81857 11.1341C9.73977 11.1341 9.66175 11.1189 9.58895 11.0892C9.51615 11.0596 9.45 11.0162 9.39429 10.9614L8.97 10.5445C8.91428 10.4897 8.87008 10.4247 8.83992 10.3532C8.80976 10.2816 8.79424 10.205 8.79424 10.1275C8.79424 10.0501 8.80976 9.97342 8.83992 9.90189C8.87008 9.83035 8.91428 9.76535 8.97 9.7106ZM2.18143 9.7106C2.29396 9.60002 2.44658 9.5379 2.60571 9.5379C2.76485 9.5379 2.91747 9.60002 3.03 9.7106C3.14253 9.82117 3.20574 9.97115 3.20574 10.1275C3.20574 10.2839 3.14253 10.4339 3.03 10.5445L2.60571 10.9614C2.55 11.0162 2.48385 11.0596 2.41105 11.0892C2.33825 11.1189 2.26023 11.1341 2.18143 11.1341C2.10263 11.1341 2.02461 11.1189 1.95181 11.0892C1.87901 11.0596 1.81286 11.0162 1.75714 10.9614C1.70142 10.9066 1.65723 10.8416 1.62707 10.7701C1.59692 10.6986 1.5814 10.6219 1.5814 10.5445C1.5814 10.467 1.59692 10.3904 1.62707 10.3188C1.65723 10.2473 1.70142 10.1823 1.75714 10.1275L2.18143 9.7106ZM6 10.9193C6.15913 10.9193 6.31174 10.9814 6.42426 11.092C6.53679 11.2026 6.6 11.3525 6.6 11.5089V12.0985C6.6 12.2549 6.53679 12.4048 6.42426 12.5154C6.31174 12.626 6.15913 12.6881 6 12.6881C5.84087 12.6881 5.68826 12.626 5.57574 12.5154C5.46321 12.4048 5.4 12.2549 5.4 12.0985V11.5089C5.4 11.3525 5.46321 11.2026 5.57574 11.092C5.68826 10.9814 5.84087 10.9193 6 10.9193Z" fill="#EDB903"/>
</svg>
