<svg width="10" height="11" viewBox="0 0 10 11" fill="none" xmlns="http://www.w3.org/2000/svg">
<path fill-rule="evenodd" clip-rule="evenodd" d="M3.79925 1.0276C3.87079 1.09801 3.9197 1.18751 3.93991 1.285C3.96012 1.38248 3.95074 1.48366 3.91293 1.57595C3.61042 2.31472 3.53558 3.12457 3.69772 3.9048C3.85985 4.68503 4.2518 5.40121 4.82483 5.9643C5.39787 6.52739 6.1267 6.91255 6.92071 7.07186C7.71472 7.23118 8.53887 7.15764 9.29068 6.86039C9.3846 6.82331 9.48754 6.81415 9.58671 6.83406C9.68589 6.85396 9.77692 6.90206 9.84852 6.97236C9.92012 7.04266 9.96913 7.13208 9.98947 7.22952C10.0098 7.32696 10.0006 7.42811 9.9629 7.52044C9.57823 8.46101 8.91594 9.26696 8.06123 9.83456C7.20653 10.4022 6.19853 10.7055 5.16694 10.7054C2.31324 10.7054 0 8.43232 0 5.62813C0 3.49212 1.34237 1.66531 3.24122 0.915394C3.33514 0.878241 3.4381 0.869021 3.53731 0.88888C3.63652 0.908738 3.72761 0.9568 3.79925 1.02709V1.0276Z" fill="#EDB903"/>
</svg>
