<svg width="42" height="24" viewBox="0 0 42 24" fill="none" xmlns="http://www.w3.org/2000/svg">
<path d="M0.415161 12C0.415161 5.37258 5.78774 0 12.4152 0H29.9631C36.5905 0 41.9631 5.37258 41.9631 12C41.9631 18.6274 36.5905 24 29.9631 24H12.4151C5.78773 24 0.415161 18.6274 0.415161 12Z" fill="white"/>
<g filter="url(#filter0_d_6_235)">
<path d="M4.18909 11.4427C4.18909 6.22764 8.41673 2 13.6318 2C18.8469 2 23.0745 6.22764 23.0745 11.4427V12.5573C23.0745 17.7724 18.8469 22 13.6318 22C8.41673 22 4.18909 17.7724 4.18909 12.5573V11.4427Z" fill="#7E84A3"/>
</g>
<defs>
<filter id="filter0_d_6_235" x="4.18909" y="2" width="18.8854" height="20" filterUnits="userSpaceOnUse" color-interpolation-filters="sRGB">
<feFlood flood-opacity="0" result="BackgroundImageFix"/>
<feColorMatrix in="SourceAlpha" type="matrix" values="0 0 0 0 0 0 0 0 0 0 0 0 0 0 0 0 0 0 127 0" result="hardAlpha"/>
<feOffset/>
<feColorMatrix type="matrix" values="0 0 0 0 1 0 0 0 0 1 0 0 0 0 1 0 0 0 1 0"/>
<feBlend mode="normal" in2="BackgroundImageFix" result="effect1_dropShadow_6_235"/>
<feBlend mode="normal" in="SourceGraphic" in2="effect1_dropShadow_6_235" result="shape"/>
</filter>
</defs>
</svg>
