<svg width="44" height="24" viewBox="0 0 44 24" fill="none" xmlns="http://www.w3.org/2000/svg">
<path d="M0 12C0 5.37258 5.37258 0 12 0H32C38.6274 0 44 5.37258 44 12V12C44 18.6274 38.6274 24 32 24H12C5.37258 24 0 18.6274 0 12V12Z" fill="white"/>
<g filter="url(#filter0_d_115_2)">
<path d="M2 12C2 6.47715 6.47715 2 12 2V2C17.5228 2 22 6.47715 22 12V12C22 17.5228 17.5228 22 12 22V22C6.47715 22 2 17.5228 2 12V12Z" fill="#7E84A3"/>
</g>
<path fill-rule="evenodd" clip-rule="evenodd" d="M12 5.896C12.1591 5.896 12.3117 5.95812 12.4243 6.06869C12.5368 6.17926 12.6 6.32923 12.6 6.4856V7.07521C12.6 7.23158 12.5368 7.38155 12.4243 7.49212C12.3117 7.60269 12.1591 7.66481 12 7.66481C11.8409 7.66481 11.6883 7.60269 11.5757 7.49212C11.4632 7.38155 11.4 7.23158 11.4 7.07521V6.4856C11.4 6.40817 11.4155 6.3315 11.4457 6.25997C11.4758 6.18844 11.52 6.12344 11.5757 6.06869C11.6315 6.01394 11.6976 5.97051 11.7704 5.94088C11.8432 5.91125 11.9212 5.896 12 5.896ZM7.75714 7.6227C7.81286 7.56794 7.87901 7.52451 7.9518 7.49487C8.0246 7.46524 8.10263 7.44998 8.18143 7.44998C8.26023 7.44998 8.33825 7.46524 8.41105 7.49487C8.48385 7.52451 8.55 7.56794 8.60571 7.6227L9.03 8.03963C9.08572 8.09439 9.12992 8.15939 9.16007 8.23092C9.19022 8.30246 9.20574 8.37914 9.20574 8.45657C9.20574 8.534 9.19022 8.61067 9.16007 8.68221C9.12992 8.75375 9.08572 8.81875 9.03 8.8735C8.97428 8.92826 8.90813 8.97169 8.83534 9.00132C8.76254 9.03095 8.68451 9.0462 8.60571 9.0462C8.52692 9.0462 8.44889 9.03095 8.37609 9.00132C8.30329 8.97169 8.23715 8.92826 8.18143 8.8735L7.75714 8.45657C7.70142 8.40182 7.65722 8.33682 7.62706 8.26528C7.59691 8.19374 7.58139 8.11707 7.58139 8.03963C7.58139 7.9622 7.59691 7.88552 7.62706 7.81399C7.65722 7.74245 7.70142 7.67745 7.75714 7.6227ZM16.2429 7.6227C16.2986 7.67745 16.3428 7.74245 16.3729 7.81399C16.4031 7.88552 16.4186 7.9622 16.4186 8.03963C16.4186 8.11707 16.4031 8.19374 16.3729 8.26528C16.3428 8.33682 16.2986 8.40182 16.2429 8.45657L15.8186 8.8735C15.706 8.98408 15.5534 9.0462 15.3943 9.0462C15.2351 9.0462 15.0825 8.98408 14.97 8.8735C14.8575 8.76292 14.7943 8.61295 14.7943 8.45657C14.7943 8.30019 14.8575 8.15021 14.97 8.03963L15.3943 7.6227C15.45 7.56794 15.5161 7.52451 15.5889 7.49487C15.6617 7.46524 15.7398 7.44998 15.8186 7.44998C15.8974 7.44998 15.9754 7.46524 16.0482 7.49487C16.121 7.52451 16.1871 7.56794 16.2429 7.6227ZM9 11.792C9 11.0102 9.31607 10.2603 9.87868 9.70748C10.4413 9.15462 11.2044 8.84402 12 8.84402C12.7956 8.84402 13.5587 9.15462 14.1213 9.70748C14.6839 10.2603 15 11.0102 15 11.792C15 12.5739 14.6839 13.3238 14.1213 13.8766C13.5587 14.4295 12.7956 14.7401 12 14.7401C11.2044 14.7401 10.4413 14.4295 9.87868 13.8766C9.31607 13.3238 9 12.5739 9 11.792ZM6 11.792C6 11.6357 6.06321 11.4857 6.17574 11.3751C6.28826 11.2646 6.44087 11.2024 6.6 11.2024H7.2C7.27879 11.2024 7.35681 11.2177 7.42961 11.2473C7.50241 11.277 7.56855 11.3204 7.62426 11.3751C7.67998 11.4299 7.72417 11.4949 7.75433 11.5664C7.78448 11.638 7.8 11.7146 7.8 11.792C7.8 11.8695 7.78448 11.9461 7.75433 12.0177C7.72417 12.0892 7.67998 12.1542 7.62426 12.209C7.56855 12.2637 7.50241 12.3071 7.42961 12.3368C7.35681 12.3664 7.27879 12.3817 7.2 12.3817H6.6C6.44087 12.3817 6.28826 12.3195 6.17574 12.209C6.06321 12.0984 6 11.9484 6 11.792ZM16.2 11.792C16.2 11.6357 16.2632 11.4857 16.3757 11.3751C16.4883 11.2646 16.6409 11.2024 16.8 11.2024H17.4C17.4788 11.2024 17.5568 11.2177 17.6296 11.2473C17.7024 11.277 17.7685 11.3204 17.8243 11.3751C17.88 11.4299 17.9242 11.4949 17.9543 11.5664C17.9845 11.638 18 11.7146 18 11.792C18 11.8695 17.9845 11.9461 17.9543 12.0177C17.9242 12.0892 17.88 12.1542 17.8243 12.209C17.7685 12.2637 17.7024 12.3071 17.6296 12.3368C17.5568 12.3664 17.4788 12.3817 17.4 12.3817H16.8C16.6409 12.3817 16.4883 12.3195 16.3757 12.209C16.2632 12.0984 16.2 11.9484 16.2 11.792ZM14.97 14.7106C15.0257 14.6558 15.0919 14.6124 15.1647 14.5828C15.2375 14.5531 15.3155 14.5379 15.3943 14.5379C15.4731 14.5379 15.5511 14.5531 15.6239 14.5828C15.6967 14.6124 15.7629 14.6558 15.8186 14.7106L16.2429 15.1275C16.2986 15.1823 16.3428 15.2473 16.3729 15.3188C16.4031 15.3904 16.4186 15.467 16.4186 15.5445C16.4186 15.6219 16.4031 15.6986 16.3729 15.7701C16.3428 15.8416 16.2986 15.9066 16.2429 15.9614C16.1871 16.0162 16.121 16.0596 16.0482 16.0892C15.9754 16.1189 15.8974 16.1341 15.8186 16.1341C15.7398 16.1341 15.6617 16.1189 15.5889 16.0892C15.5162 16.0596 15.45 16.0162 15.3943 15.9614L14.97 15.5445C14.9143 15.4897 14.8701 15.4247 14.8399 15.3532C14.8098 15.2816 14.7942 15.205 14.7942 15.1275C14.7942 15.0501 14.8098 14.9734 14.8399 14.9019C14.8701 14.8303 14.9143 14.7653 14.97 14.7106ZM8.18143 14.7106C8.29396 14.6 8.44658 14.5379 8.60571 14.5379C8.76485 14.5379 8.91747 14.6 9.03 14.7106C9.14253 14.8212 9.20574 14.9712 9.20574 15.1275C9.20574 15.2839 9.14253 15.4339 9.03 15.5445L8.60571 15.9614C8.55 16.0162 8.48385 16.0596 8.41105 16.0892C8.33825 16.1189 8.26023 16.1341 8.18143 16.1341C8.10263 16.1341 8.02461 16.1189 7.95181 16.0892C7.87901 16.0596 7.81286 16.0162 7.75714 15.9614C7.70142 15.9066 7.65723 15.8416 7.62707 15.7701C7.59692 15.6986 7.5814 15.6219 7.5814 15.5445C7.5814 15.467 7.59692 15.3904 7.62707 15.3188C7.65723 15.2473 7.70142 15.1823 7.75714 15.1275L8.18143 14.7106ZM12 15.9193C12.1591 15.9193 12.3117 15.9814 12.4243 16.092C12.5368 16.2026 12.6 16.3525 12.6 16.5089V17.0985C12.6 17.2549 12.5368 17.4048 12.4243 17.5154C12.3117 17.626 12.1591 17.6881 12 17.6881C11.8409 17.6881 11.6883 17.626 11.5757 17.5154C11.4632 17.4048 11.4 17.2549 11.4 17.0985V16.5089C11.4 16.3525 11.4632 16.2026 11.5757 16.092C11.6883 15.9814 11.8409 15.9193 12 15.9193Z" fill="#EDB903"/>
<defs>
<filter id="filter0_d_115_2" x="2" y="2" width="20" height="20" filterUnits="userSpaceOnUse" color-interpolation-filters="sRGB">
<feFlood flood-opacity="0" result="BackgroundImageFix"/>
<feColorMatrix in="SourceAlpha" type="matrix" values="0 0 0 0 0 0 0 0 0 0 0 0 0 0 0 0 0 0 127 0" result="hardAlpha"/>
<feOffset/>
<feColorMatrix type="matrix" values="0 0 0 0 1 0 0 0 0 1 0 0 0 0 1 0 0 0 1 0"/>
<feBlend mode="normal" in2="BackgroundImageFix" result="effect1_dropShadow_115_2"/>
<feBlend mode="normal" in="SourceGraphic" in2="effect1_dropShadow_115_2" result="shape"/>
</filter>
</defs>
</svg>
