<svg width="335" height="1050" viewBox="0 0 335 1050" fill="none" xmlns="http://www.w3.org/2000/svg">
<g clip-path="url(#clip0_132_67)">
<path d="M2 602.075L5.62854 594.212L1196.87 1231.3L1193.24 1238.8L2 602.075Z" fill="white" fill-opacity="0.1"/>
<path d="M17.6018 567.767L21.2303 559.913L1212.48 1196.99L1208.85 1204.5L17.6018 567.767Z" fill="white" fill-opacity="0.1"/>
<path d="M33.2055 533.468L36.834 525.605L1228.08 1162.69L1224.45 1170.19L33.2055 533.468Z" fill="white" fill-opacity="0.1"/>
<path d="M48.8082 499.17L52.4366 491.306L1243.68 1128.03L1239.7 1135.89L48.8082 499.17Z" fill="white" fill-opacity="0.1"/>
<path d="M64.0477 464.862L68.039 457.008L1259.29 1093.73L1255.3 1101.59L64.0477 464.862Z" fill="white" fill-opacity="0.1"/>
<path d="M79.6505 430.563L83.642 422.709L1274.89 1059.43L1270.9 1067.28L79.6505 430.563Z" fill="white" fill-opacity="0.1"/>
<path d="M95.2542 395.91L99.2457 388.401L1290.49 1025.12L1286.5 1032.99L95.2542 395.91Z" fill="white" fill-opacity="0.1"/>
<path d="M110.856 361.602L114.848 354.103L1306.09 990.824L1302.1 998.688L110.856 361.602Z" fill="white" fill-opacity="0.1"/>
<path d="M126.458 327.304L130.45 319.794L1321.7 956.526L1317.7 964.379L126.458 327.304Z" fill="white" fill-opacity="0.1"/>
<path d="M142.062 293.005L146.052 285.141L1337.3 922.217L1333.3 930.081L142.062 293.005Z" fill="white" fill-opacity="0.1"/>
<path d="M157.664 258.697L161.656 250.843L1352.9 887.919L1348.91 895.782L157.664 258.697Z" fill="white" fill-opacity="0.1"/>
<path d="M173.266 224.397L177.258 216.537L1368.15 853.62L1364.52 861.474L173.266 224.397Z" fill="white" fill-opacity="0.1"/>
<path d="M188.87 190.096L192.498 182.235L1383.75 819.312L1380.12 827.176L188.87 190.096Z" fill="white" fill-opacity="0.1"/>
<path d="M204.471 155.794L208.1 147.933L1399.35 785.014L1395.72 792.513L204.471 155.794Z" fill="white" fill-opacity="0.1"/>
<path d="M220.075 121.494L223.704 113.633L1414.95 750.715L1411.32 758.215L220.075 121.494Z" fill="white" fill-opacity="0.1"/>
<path d="M235.678 87.1915L239.306 79.3309L1430.55 716.052L1426.92 723.916L235.678 87.1915Z" fill="white" fill-opacity="0.1"/>
<path d="M251.28 52.8901L254.909 45.0295L1446.15 681.754L1442.52 689.608L251.28 52.8901Z" fill="white" fill-opacity="0.1"/>
<path d="M266.52 18.5877L270.512 10.7271L1461.75 647.446L1457.77 655.309L266.52 18.5877Z" fill="white" fill-opacity="0.1"/>
<path d="M282.122 -16.071L286.114 -23.5744L1477.37 613.147L1473.37 621.011L282.122 -16.071Z" fill="white" fill-opacity="0.1"/>
<path d="M297.726 -50.3715L301.716 -57.8748L1492.97 578.849L1488.97 586.712L297.726 -50.3715Z" fill="white" fill-opacity="0.1"/>
<path d="M313.327 -84.6729L317.319 -92.1772L1508.57 544.55L1504.57 552.404L313.327 -84.6729Z" fill="white" fill-opacity="0.1"/>
<path d="M328.93 -118.975L332.922 -126.836L1524.17 510.242L1520.18 518.105L328.93 -118.975Z" fill="white" fill-opacity="0.1"/>
<path d="M344.534 -153.278L348.525 -161.138L1539.77 475.943L1535.78 483.807L344.534 -153.278Z" fill="white" fill-opacity="0.1"/>
<path d="M360.136 -187.578L364.128 -195.439L1555.37 441.645L1551.38 449.499L360.136 -187.578Z" fill="white" fill-opacity="0.1"/>
<path d="M375.739 -221.88L379.73 -229.74L1570.97 407.337L1566.99 415.2L375.739 -221.88Z" fill="white" fill-opacity="0.1"/>
<path d="M391.341 -256.181L394.969 -264.043L1586.22 373.038L1582.59 380.538L391.341 -256.181Z" fill="white" fill-opacity="0.1"/>
<path d="M406.944 -290.483L410.573 -298.344L1601.82 338.74L1598.19 346.239L406.944 -290.483Z" fill="white" fill-opacity="0.1"/>
<path d="M422.547 -324.785L426.176 -332.647L1617.42 304.431L1613.79 311.941L422.547 -324.785Z" fill="white" fill-opacity="0.1"/>
<path d="M438.15 -359.085L441.778 -366.946L1633.03 269.779L1629.4 277.642L438.15 -359.085Z" fill="white" fill-opacity="0.1"/>
<path d="M453.753 -393.388L457.381 -401.248L1648.63 235.475L1645 243.336L453.753 -393.388Z" fill="white" fill-opacity="0.1"/>
<path d="M469.354 -427.689L472.983 -435.55L1664.23 201.173L1660.23 209.033L469.354 -427.689Z" fill="white" fill-opacity="0.1"/>
<path d="M484.595 -462.349L488.586 -469.852L1679.83 166.871L1675.85 174.732L484.595 -462.349Z" fill="white" fill-opacity="0.1"/>
<path d="M500.197 -496.65L504.188 -504.154L1695.43 132.569L1691.45 140.429L500.197 -496.65Z" fill="white" fill-opacity="0.1"/>
<path d="M517.252 -529.165L520.88 -537.025L1712.13 99.6974L1708.5 107.558L517.252 -529.165Z" fill="white" fill-opacity="0.1"/>
<path d="M533.942 -562.038L537.934 -569.899L1728.82 66.824L1725.19 74.6856L533.942 -562.038Z" fill="white" fill-opacity="0.1"/>
<path d="M550.635 -594.908L554.626 -602.77L1745.88 34.3108L1741.88 41.8141L550.635 -594.908Z" fill="white" fill-opacity="0.1"/>
<path d="M567.688 -627.782L571.317 -635.643L1762.57 1.43741L1758.57 8.94085L567.688 -627.782Z" fill="white" fill-opacity="0.1"/>
<path d="M584.379 -660.655L588.008 -668.516L1779.26 -31.4359L1775.63 -23.5744L584.379 -660.655Z" fill="white" fill-opacity="0.1"/>
<path d="M601.071 -693.526L605.063 -701.387L1796.31 -64.3064L1792.32 -56.4458L601.071 -693.526Z" fill="white" fill-opacity="0.1"/>
<path d="M617.763 -726.399L621.754 -733.902L1813 -97.1798L1809.01 -89.3192L617.763 -726.399Z" fill="white" fill-opacity="0.1"/>
<path d="M47.6966 -448C-231.303 -470.711 -386.348 -604.849 -431.288 -682L551.116 -470.711L424.502 176C388.678 162.886 354.697 128.264 315.697 96C260.697 50.5 248.229 -56 248.229 -142.121C248.229 -230.573 268.697 -322.231 220.197 -369.5C163.728 -424.535 124.198 -441.773 47.6966 -448Z" fill="#AC0091" fill-opacity="0.21" stroke="#AC0091" stroke-opacity="0.6" stroke-width="2" stroke-linecap="round" stroke-linejoin="round"/>
</g>
<defs>
<clipPath id="clip0_132_67">
<rect width="335" height="1050" fill="white"/>
</clipPath>
</defs>
</svg>
