<svg width="333" height="785" viewBox="0 0 333 785" fill="none" xmlns="http://www.w3.org/2000/svg">
<g clip-path="url(#clip0_613_3)">
<path d="M45.6966 -448C-233.303 -470.711 -388.348 -604.849 -433.288 -682L549.116 -470.711L422.502 176C386.678 162.886 352.697 128.264 313.697 96C258.697 50.5 246.229 -56 246.229 -142.121C246.229 -230.573 266.697 -322.231 218.197 -369.5C161.728 -424.535 122.198 -441.773 45.6966 -448Z" fill="#AC0091" fill-opacity="0.21" stroke="#AC0091" stroke-opacity="0.6" stroke-width="2" stroke-linecap="round" stroke-linejoin="round"/>
<path d="M0 602.075L3.62854 594.212L1194.87 1231.3L1191.24 1238.8L0 602.075Z" fill="white" fill-opacity="0.1"/>
<path d="M15.6018 567.767L19.2303 559.913L1210.48 1196.99L1206.85 1204.5L15.6018 567.767Z" fill="white" fill-opacity="0.1"/>
<path d="M31.2055 533.468L34.834 525.605L1226.08 1162.69L1222.45 1170.19L31.2055 533.468Z" fill="white" fill-opacity="0.1"/>
<path d="M46.8082 499.17L50.4366 491.306L1241.68 1128.03L1237.7 1135.89L46.8082 499.17Z" fill="white" fill-opacity="0.1"/>
<path d="M62.0477 464.862L66.039 457.008L1257.29 1093.73L1253.3 1101.59L62.0477 464.862Z" fill="white" fill-opacity="0.1"/>
<path d="M77.6505 430.563L81.642 422.709L1272.89 1059.43L1268.9 1067.28L77.6505 430.563Z" fill="white" fill-opacity="0.1"/>
<path d="M93.2542 395.91L97.2457 388.401L1288.49 1025.12L1284.5 1032.99L93.2542 395.91Z" fill="white" fill-opacity="0.1"/>
<path d="M108.856 361.602L112.848 354.103L1304.09 990.824L1300.1 998.688L108.856 361.602Z" fill="white" fill-opacity="0.1"/>
<path d="M124.458 327.304L128.45 319.794L1319.7 956.526L1315.7 964.379L124.458 327.304Z" fill="white" fill-opacity="0.1"/>
<path d="M140.062 293.005L144.052 285.141L1335.3 922.217L1331.3 930.081L140.062 293.005Z" fill="white" fill-opacity="0.1"/>
<path d="M155.664 258.697L159.656 250.843L1350.9 887.919L1346.91 895.782L155.664 258.697Z" fill="white" fill-opacity="0.1"/>
<path d="M171.266 224.397L175.258 216.537L1366.15 853.62L1362.52 861.474L171.266 224.397Z" fill="white" fill-opacity="0.1"/>
<path d="M186.87 190.096L190.498 182.235L1381.75 819.312L1378.12 827.176L186.87 190.096Z" fill="white" fill-opacity="0.1"/>
<path d="M202.471 155.794L206.1 147.933L1397.35 785.014L1393.72 792.513L202.471 155.794Z" fill="white" fill-opacity="0.1"/>
<path d="M218.075 121.494L221.704 113.633L1412.95 750.715L1409.32 758.215L218.075 121.494Z" fill="white" fill-opacity="0.1"/>
<path d="M233.678 87.1915L237.306 79.3309L1428.55 716.052L1424.92 723.916L233.678 87.1915Z" fill="white" fill-opacity="0.1"/>
<path d="M249.28 52.8901L252.909 45.0295L1444.15 681.754L1440.52 689.608L249.28 52.8901Z" fill="white" fill-opacity="0.1"/>
<path d="M264.52 18.5877L268.512 10.7271L1459.75 647.446L1455.77 655.309L264.52 18.5877Z" fill="white" fill-opacity="0.1"/>
<path d="M280.122 -16.071L284.114 -23.5744L1475.37 613.147L1471.37 621.011L280.122 -16.071Z" fill="white" fill-opacity="0.1"/>
<path d="M295.726 -50.3715L299.716 -57.8748L1490.97 578.849L1486.97 586.712L295.726 -50.3715Z" fill="white" fill-opacity="0.1"/>
<path d="M311.327 -84.6729L315.319 -92.1772L1506.57 544.55L1502.57 552.404L311.327 -84.6729Z" fill="white" fill-opacity="0.1"/>
<path d="M326.93 -118.975L330.922 -126.836L1522.17 510.242L1518.18 518.105L326.93 -118.975Z" fill="white" fill-opacity="0.1"/>
<path d="M342.534 -153.278L346.525 -161.138L1537.77 475.943L1533.78 483.807L342.534 -153.278Z" fill="white" fill-opacity="0.1"/>
<path d="M358.136 -187.578L362.128 -195.439L1553.37 441.645L1549.38 449.499L358.136 -187.578Z" fill="white" fill-opacity="0.1"/>
<path d="M373.739 -221.88L377.73 -229.74L1568.97 407.337L1564.99 415.2L373.739 -221.88Z" fill="white" fill-opacity="0.1"/>
<path d="M389.341 -256.181L392.969 -264.043L1584.22 373.038L1580.59 380.538L389.341 -256.181Z" fill="white" fill-opacity="0.1"/>
<path d="M404.944 -290.483L408.573 -298.344L1599.82 338.74L1596.19 346.239L404.944 -290.483Z" fill="white" fill-opacity="0.1"/>
<path d="M420.547 -324.785L424.176 -332.647L1615.42 304.431L1611.79 311.941L420.547 -324.785Z" fill="white" fill-opacity="0.1"/>
<path d="M436.15 -359.085L439.778 -366.946L1631.03 269.779L1627.4 277.642L436.15 -359.085Z" fill="white" fill-opacity="0.1"/>
<path d="M451.753 -393.388L455.381 -401.248L1646.63 235.475L1643 243.336L451.753 -393.388Z" fill="white" fill-opacity="0.1"/>
<path d="M467.354 -427.689L470.983 -435.55L1662.23 201.173L1658.23 209.033L467.354 -427.689Z" fill="white" fill-opacity="0.1"/>
<path d="M482.595 -462.349L486.586 -469.852L1677.83 166.871L1673.85 174.732L482.595 -462.349Z" fill="white" fill-opacity="0.1"/>
<path d="M498.197 -496.65L502.188 -504.154L1693.43 132.569L1689.45 140.429L498.197 -496.65Z" fill="white" fill-opacity="0.1"/>
<path d="M515.252 -529.165L518.88 -537.025L1710.13 99.6974L1706.5 107.558L515.252 -529.165Z" fill="white" fill-opacity="0.1"/>
<path d="M531.942 -562.038L535.934 -569.899L1726.82 66.824L1723.19 74.6856L531.942 -562.038Z" fill="white" fill-opacity="0.1"/>
<path d="M548.635 -594.908L552.626 -602.77L1743.88 34.3108L1739.88 41.8141L548.635 -594.908Z" fill="white" fill-opacity="0.1"/>
<path d="M565.688 -627.782L569.317 -635.643L1760.57 1.43741L1756.57 8.94085L565.688 -627.782Z" fill="white" fill-opacity="0.1"/>
<path d="M582.379 -660.655L586.008 -668.516L1777.26 -31.4359L1773.63 -23.5744L582.379 -660.655Z" fill="white" fill-opacity="0.1"/>
<path d="M599.071 -693.526L603.063 -701.387L1794.31 -64.3064L1790.32 -56.4458L599.071 -693.526Z" fill="white" fill-opacity="0.1"/>
<path d="M615.763 -726.399L619.754 -733.902L1811 -97.1798L1807.01 -89.3192L615.763 -726.399Z" fill="white" fill-opacity="0.1"/>
</g>
<defs>
<clipPath id="clip0_613_3">
<rect width="333" height="785" fill="white"/>
</clipPath>
</defs>
</svg>
