<svg width="32" height="48" viewBox="0 0 32 48" fill="none" xmlns="http://www.w3.org/2000/svg">
<path fill-rule="evenodd" clip-rule="evenodd" d="M5.89625 21.05L7.07704 20.8528C7.20558 20.4992 7.36017 20.1544 7.53973 19.8206L6.85411 18.9004C6.66576 18.6488 6.57855 18.3437 6.60773 18.0385C6.63692 17.7332 6.78063 17.4472 7.01376 17.2304L8.86877 15.508C9.10245 15.2919 9.4105 15.1589 9.73901 15.1325C10.0675 15.1061 10.3956 15.1878 10.6658 15.3635L11.6507 15.9946C12.0114 15.8292 12.3837 15.6865 12.7649 15.5672L12.9778 14.4694C13.0359 14.1679 13.2065 13.8951 13.4598 13.6991C13.713 13.5031 14.0325 13.3964 14.3621 13.3979L16.9847 13.3979C17.314 13.3967 17.6333 13.5034 17.8863 13.6994C18.1393 13.8954 18.3098 14.1681 18.3678 14.4694L18.581 15.5676C18.9623 15.6869 19.3345 15.8296 19.6953 15.9949L20.6801 15.3638C20.9503 15.1882 21.2784 15.1064 21.6069 15.1329C21.9354 15.1593 22.2434 15.2922 22.4771 15.5084L24.3319 17.2304C24.5651 17.4472 24.7088 17.7332 24.738 18.0384C24.7672 18.3436 24.6801 18.6487 24.4918 18.9003L23.807 19.8205C23.9859 20.1545 24.1403 20.4993 24.269 20.8527L25.4497 21.0499C25.7748 21.1039 26.069 21.2626 26.2806 21.4983C26.4922 21.7339 26.6076 22.0313 26.6065 22.3382L26.6065 24.7708C26.6076 25.0777 26.4922 25.3751 26.2806 25.6107C26.069 25.8464 25.7748 26.0052 25.4497 26.0592L24.269 26.2564C24.1403 26.6119 23.9859 26.9589 23.807 27.295L24.4918 28.2088C24.6801 28.4604 24.7672 28.7655 24.738 29.0707C24.7088 29.3759 24.5651 29.6619 24.3319 29.8787L22.4768 31.601C22.2431 31.8166 21.9357 31.9497 21.6077 31.9773C21.2796 32.005 20.9515 31.9254 20.6798 31.7523L19.695 31.1145C19.3342 31.2799 18.962 31.4226 18.5807 31.5418L18.3678 32.6397C18.3098 32.941 18.1393 33.2137 17.8863 33.4097C17.6333 33.6057 17.314 33.7125 16.9847 33.7113L14.3621 33.7113C14.0326 33.7126 13.7132 33.6059 13.46 33.4099C13.2069 33.2139 13.0362 32.9411 12.9782 32.6397L12.7653 31.5418C12.384 31.4226 12.0118 31.2799 11.6511 31.1145L10.6662 31.7523C10.3945 31.9254 10.0664 32.005 9.73834 31.9773C9.4103 31.9497 9.10291 31.8166 8.86917 31.601L7.01376 29.8789C6.78061 29.6621 6.63686 29.3761 6.60762 29.0709C6.57838 28.7657 6.66553 28.4606 6.85382 28.209L7.53943 27.2952C7.35985 26.9592 7.20526 26.6122 7.07674 26.2565L5.89595 26.0593C5.57083 26.0054 5.2766 25.8466 5.06502 25.611C4.85343 25.3753 4.73804 25.0779 4.73913 24.771L4.73913 22.3385C4.73804 22.0316 4.85343 21.7342 5.06502 21.4985C5.2766 21.2629 5.57083 21.1041 5.89595 21.0501L5.89625 21.05ZM1.58409 43.8809C1.58396 44.112 1.63281 44.3408 1.72786 44.5543C1.8229 44.7677 1.96228 44.9617 2.13803 45.1252C2.31377 45.2886 2.52245 45.4182 2.75213 45.5067C2.98181 45.5952 3.228 45.6407 3.47664 45.6408L27.8689 45.6408C28.1175 45.6408 28.3637 45.5953 28.5934 45.5069C28.8232 45.4185 29.0319 45.2889 29.2077 45.1255C29.3835 44.9621 29.5229 44.7682 29.618 44.5547C29.7131 44.3412 29.7621 44.1124 29.762 43.8814L29.762 3.2279C29.7607 2.76219 29.5608 2.31594 29.2061 1.98693C28.8514 1.65792 28.3707 1.47299 27.8696 1.47265L24.2606 1.47265C23.9883 1.57783 23.7208 1.94592 23.7208 2.23525C23.7207 2.50211 23.6641 2.76634 23.5541 3.01286C23.4442 3.25938 23.283 3.48335 23.0799 3.67199C22.8767 3.86062 22.6356 4.01022 22.3702 4.11224C22.1048 4.21426 21.8204 4.2667 21.5332 4.26657L9.56737 4.26657C9.28021 4.26664 8.99585 4.21416 8.73053 4.11211C8.4652 4.01007 8.22411 3.86046 8.02101 3.67183C7.81791 3.4832 7.65678 3.25925 7.54683 3.01276C7.43688 2.76627 7.38025 2.50207 7.38018 2.23525C7.38018 1.94592 7.15449 1.58437 6.90482 1.47265L3.47704 1.47265C2.97582 1.47296 2.49518 1.65789 2.14043 1.9869C1.78569 2.31591 1.58577 2.76217 1.58449 3.2279L1.58449 43.8814L1.58409 43.8809ZM3.47664 -4.41959e-09C2.55516 0.00029203 1.67147 0.340385 1.01963 0.945597C0.367788 1.55081 0.00107956 2.37166 3.05175e-05 3.2279L3.05162e-05 43.8814C0.000789641 44.7381 0.367271 45.5595 1.01906 46.1654C1.67084 46.7713 2.55469 47.1121 3.47664 47.1132L27.8689 47.1132C28.7909 47.1122 29.675 46.7714 30.3269 46.1655C30.9789 45.5597 31.3456 44.7382 31.3466 43.8814L31.3466 3.2279C31.3453 2.37162 30.9785 1.55078 30.3265 0.94559C29.6746 0.340399 28.7909 0.000316158 27.8694 -5.51413e-10L3.47664 -4.41959e-09ZM11.8929 23.5547C11.8925 24.2495 12.1138 24.9288 12.5289 25.5067C12.944 26.0846 13.5343 26.5351 14.225 26.8013C14.9157 27.0674 15.6758 27.1373 16.4092 27.002C17.1426 26.8666 17.8164 26.5323 18.3453 26.0411C18.8742 25.5499 19.2344 24.9241 19.3804 24.2426C19.5264 23.5612 19.4517 22.8548 19.1656 22.2129C18.8796 21.5709 18.395 21.0223 17.7733 20.6362C17.1516 20.2502 16.4207 20.0441 15.6729 20.0441C14.6708 20.0443 13.7098 20.4142 13.001 21.0724C12.2922 21.7307 11.8937 22.6235 11.8929 23.5547ZM21.0378 23.5547C21.0383 22.5686 20.724 21.6046 20.1348 20.7845C19.5455 19.9645 18.7078 19.3252 17.7275 18.9476C16.7472 18.57 15.6685 18.471 14.6276 18.6631C13.5868 18.8552 12.6307 19.3298 11.8802 20.0269C11.1296 20.724 10.6185 21.6123 10.4113 22.5793C10.2041 23.5464 10.3102 24.5488 10.7162 25.4599C11.1222 26.3709 11.8098 27.1496 12.6921 27.6974C13.5744 28.2453 14.6118 28.5377 15.6729 28.5377C17.095 28.5365 18.4585 28.0112 19.4643 27.077C20.4701 26.1428 21.036 24.8761 21.0378 23.5547Z" fill="white"/>
</svg>
