<svg width="49" height="45" viewBox="0 0 49 45" fill="none" xmlns="http://www.w3.org/2000/svg">
<g clip-path="url(#clip0_454_140)">
<path d="M44.4656 26.7937C45.2492 25.7884 44.9971 24.3899 43.9022 23.6703C43.2352 23.2318 42.3727 23.1308 41.6073 23.4015C41.3068 23.1015 41.0022 22.8015 40.6779 22.5015C45.328 18.1778 47.4195 13.9515 45.7217 11.2515C44.0238 8.5515 38.9923 8.1015 32.5905 9.63825C30.8355 3.77625 27.8963 2.58105e-08 24.5006 2.23334e-08C21.1049 1.88563e-08 18.1633 3.77925 16.4156 9.64275C15.3539 9.38625 14.3062 9.168 13.3123 9.0195C8.22198 8.25975 4.66458 9.05325 3.28687 11.25C2.17702 13.0162 2.62537 15.4208 4.54372 18.2175C3.76278 19.2221 4.01646 20.6179 5.11028 21.3352C5.77688 21.7722 6.63806 21.8721 7.40205 21.6007C7.70177 21.9008 8.00557 22.2008 8.32897 22.5007C3.6756 26.8237 1.58493 31.05 3.28278 33.75C4.34445 35.4323 6.69073 36.2423 9.86022 36.2423C12.0769 36.2033 14.2792 35.9081 16.4156 35.364C18.1657 41.2238 21.1049 45 24.5006 45C27.8963 45 30.8379 41.2208 32.5897 35.3573C33.6513 35.6138 34.6991 35.832 35.693 35.9805C36.8437 36.1596 38.0083 36.2534 39.1753 36.261C42.4019 36.261 44.6739 35.403 45.7086 33.75C46.8234 31.986 46.3766 29.586 44.4656 26.7937ZM43.2839 25.5C43.2839 25.9142 42.9183 26.25 42.4673 26.25C42.0163 26.25 41.6506 25.9142 41.6506 25.5C41.6506 25.0858 42.0163 24.75 42.4673 24.75C42.9183 24.75 43.2839 25.0858 43.2839 25.5ZM44.3039 12C45.5134 13.9245 43.769 17.5215 39.5142 21.4635C37.7964 20.0114 35.9738 18.6676 34.0589 17.4412C33.86 15.2988 33.5001 13.1714 32.9817 11.0745C38.8306 9.65925 43.0936 10.0755 44.3039 12ZM28.5839 28.995C27.1956 29.7315 25.8345 30.393 24.5006 30.9795C23.1417 30.3795 21.7738 29.718 20.4173 28.998C19.0608 28.278 17.7549 27.5168 16.5022 26.73C16.3936 25.38 16.3339 23.97 16.3339 22.5C16.3339 21.03 16.3935 19.6147 16.503 18.2633C17.7223 17.499 19.0289 16.7423 20.4173 16.005C21.8056 15.2677 23.1686 14.61 24.5006 14.0205C25.8595 14.6205 27.2275 15.282 28.5839 16.002C29.9404 16.722 31.2471 17.4818 32.499 18.2685C32.6076 19.6185 32.6673 21.03 32.6673 22.5C32.6673 23.97 32.6076 25.3852 32.4982 26.7367C31.2789 27.501 29.9723 28.2577 28.5839 28.995ZM32.3047 28.656C32.1124 30.2825 31.821 31.8978 31.4316 33.4943C29.7247 33.0098 28.0488 32.438 26.4116 31.7813C27.4014 31.3193 28.3977 30.8238 29.4006 30.2948C30.4035 29.7657 31.3715 29.2195 32.3047 28.656ZM22.6067 31.7813C20.9661 32.4457 19.286 33.0248 17.5745 33.516C17.1821 31.9104 16.8888 30.2858 16.6957 28.65C17.6406 29.2163 18.6051 29.7705 19.6006 30.3C20.5961 30.8295 21.6039 31.314 22.6067 31.7813ZM14.7921 25.6125C13.3571 24.6423 11.9814 23.6002 10.6712 22.491C11.9805 21.3829 13.3566 20.3433 14.7929 19.377C14.7313 20.3965 14.7006 21.4375 14.7006 22.5C14.7006 23.559 14.7333 24.6 14.7921 25.6125ZM16.6965 16.344C16.8888 14.7175 17.1802 13.1022 17.5695 11.5057C19.2764 11.9902 20.9524 12.5621 22.5896 13.2188C21.5998 13.6807 20.6035 14.1762 19.6006 14.7052C18.5977 15.2343 17.6298 15.7805 16.6965 16.344ZM26.3945 13.2188C28.0351 12.5543 29.7152 11.9752 31.4267 11.484C31.8191 13.0896 32.1124 14.7142 32.3055 16.35C31.3606 15.7845 30.3961 15.2303 29.4006 14.7C28.4051 14.1698 27.3973 13.686 26.3945 13.2188ZM34.2091 19.386C35.6457 20.3555 37.0234 21.3965 38.3357 22.5045C37.0247 23.6142 35.6467 24.6554 34.2083 25.623C34.2699 24.604 34.3006 23.563 34.3006 22.5C34.3006 21.4403 34.2679 20.4 34.2091 19.386ZM24.5006 1.5C26.9212 1.5 29.4447 4.68225 31.0339 10.0417C28.7971 10.6777 26.6106 11.4546 24.49 12.3668C22.3759 11.4586 20.1966 10.6845 17.9673 10.05C19.554 4.68525 22.0792 1.5 24.5006 1.5ZM5.71727 19.5C5.71553 19.2648 5.83711 19.0432 6.04393 18.9045C6.05128 18.8993 6.06108 18.8985 6.06925 18.8932C6.20237 18.7992 6.36601 18.7488 6.53393 18.75C6.98494 18.7519 7.34897 19.0892 7.34692 19.5034C7.3458 19.7284 7.23474 19.9411 7.04435 20.0828C6.90051 20.1911 6.72003 20.2503 6.53393 20.25C6.08293 20.25 5.71727 19.9142 5.71727 19.5ZM6.53393 17.25C6.30435 17.2499 6.07589 17.2794 5.85528 17.3377C4.34363 15.1043 3.93203 13.2233 4.70215 12C5.70175 10.4055 8.7422 9.8595 13.0428 10.5C13.9958 10.6418 14.9938 10.8503 16.0138 11.1C15.5 13.1858 15.1431 15.3015 14.9456 17.4323C13.0334 18.6567 11.215 20.0003 9.50333 21.4538C9.21097 21.183 8.91778 20.9122 8.64583 20.6415C9.33234 19.5707 8.94351 18.1915 7.77751 17.5611C7.40062 17.3573 6.97126 17.2499 6.53393 17.25ZM4.69725 33C3.48777 31.0755 5.23217 27.4785 9.487 23.5365C11.2048 24.9886 13.0274 26.3324 14.9423 27.5588C15.1412 29.7012 15.5011 31.8286 16.0195 33.9255C10.1705 35.3408 5.90755 34.9245 4.69725 33ZM24.5006 43.5C22.08 43.5 19.5557 40.317 17.9673 34.9567C20.2038 34.3214 22.3898 33.5445 24.5096 32.6317C26.6242 33.5403 28.8041 34.3148 31.0339 34.95C29.4471 40.3148 26.922 43.5 24.5006 43.5ZM44.299 33C43.2986 34.5938 40.2598 35.1398 35.9584 34.5C35.0054 34.3582 34.0074 34.1497 32.9874 33.9C33.5012 31.8143 33.8581 29.6985 34.0556 27.5677C35.9685 26.3427 37.7875 24.9983 39.4995 23.544C39.7984 23.8207 40.0785 24.0968 40.3562 24.3735C40.136 24.7146 40.019 25.1034 40.0173 25.5C40.0173 26.7427 41.1142 27.75 42.4673 27.75C42.6921 27.7471 42.9152 27.7152 43.1304 27.6555C44.6429 29.8898 45.0692 31.7768 44.299 33Z" fill="white"/>
<path d="M24.5006 19.5C22.6965 19.5 21.2339 20.8432 21.2339 22.5C21.2339 24.1568 22.6965 25.5 24.5006 25.5C26.3047 25.5 27.7673 24.1568 27.7673 22.5C27.7673 20.8432 26.3047 19.5 24.5006 19.5ZM24.5006 24C23.5985 24 22.8673 23.3285 22.8673 22.5C22.8673 21.6715 23.5985 21 24.5006 21C25.4027 21 26.1339 21.6715 26.1339 22.5C26.1339 23.3285 25.4027 24 24.5006 24Z" fill="white"/>
</g>
<defs>
<clipPath id="clip0_454_140">
<rect width="49" height="45" fill="white"/>
</clipPath>
</defs>
</svg>
