<svg width="88" height="44" viewBox="0 0 88 44" fill="none" xmlns="http://www.w3.org/2000/svg">
<path d="M7.99392 25.5268C5.41709 25.5251 2.91782 24.6725 1.29055 23.8162L0.0681746 28.9368C1.57512 29.7916 4.5908 30.6057 7.64352 30.6077C14.9792 30.6125 18.4241 26.713 18.4194 22.1197C18.4155 18.2582 16.1917 15.737 11.4729 13.9446C8.02135 12.5993 6.51449 11.8277 6.51271 10.0799C6.51126 8.65646 7.77816 7.43758 10.3955 7.43927C13.0129 7.44096 14.9173 8.2156 15.9872 8.74436L17.3314 3.74583C15.7434 3.01298 13.5229 2.3615 10.5094 2.35955C4.20519 2.35548 0.401717 5.92897 0.406466 10.604C0.410513 14.5875 3.30761 17.1092 7.75039 18.6976C10.9625 19.8792 12.233 20.8558 12.2347 22.5606C12.2365 24.3514 10.7695 25.5286 7.99392 25.5268Z" fill="white"/>
<path d="M39.5562 25.1413L28.5743 25.1342L28.5677 18.631L38.3991 18.6373L38.394 13.5963L28.5626 13.59L28.5568 7.89895L38.9844 7.90569L38.9793 2.82451L22.4841 2.81384L22.5119 30.2115L39.5614 30.2225L39.5562 25.1413Z" fill="white"/>
<path d="M59.9983 32.3148C63.75 32.3172 67.1866 30.9348 69.8611 28.644L75.189 33.7397C75.1814 34.308 75.3834 34.8709 75.8192 35.2883L83.637 42.7696C84.0281 43.1441 84.5231 43.3288 85.0193 43.3291C85.5614 43.3294 86.1033 43.108 86.5017 42.6675C87.2647 41.8309 87.2188 40.5113 86.4014 39.7291L78.5836 32.2492C78.1478 31.8317 77.5825 31.6664 77.0337 31.7118L71.7762 26.684C74.0325 23.937 75.3985 20.3924 75.3946 16.524C75.3857 7.81283 68.4673 0.722979 59.9703 0.717485C51.4732 0.711991 44.5652 7.79567 44.574 16.5055C44.5815 25.2194 51.5013 32.3093 59.9983 32.3148ZM59.9704 4.87696C66.2313 4.881 71.3295 10.1055 71.336 16.5228C71.3425 22.9401 66.2523 28.1593 59.9941 28.1553C53.7359 28.1513 48.6351 22.9254 48.6285 16.5081C48.622 10.0908 53.7095 4.87291 59.9704 4.87696Z" fill="white"/>
</svg>
