<svg width="433" height="880" viewBox="0 0 433 880" fill="none" xmlns="http://www.w3.org/2000/svg">
<g clip-path="url(#clip0_206_24)">
<path fill-rule="evenodd" clip-rule="evenodd" d="M-122.408 308.112C-137.91 282.657 -165.565 268.344 -181.339 243.054C-200.797 211.857 -231.983 180.094 -224.639 144.209C-217.315 108.425 -172.612 95.6368 -145.998 70.3688C-119.272 44.996 -99.5202 14.3988 -67.8617 -4.6343C-23.9093 -31.0586 27.5119 -86.1009 72.2566 -60.8459C119.858 -33.9787 90.2287 43.1619 107.782 94.5031C118.791 126.704 145.881 149.959 155.487 182.594C167.342 222.87 183.521 265.414 169.756 305.044C155.164 347.054 117.247 376.036 79.792 400.521C39.0046 427.185 -9.91104 471.872 -54.3618 451.557C-103.837 428.946 -94.2833 354.295 -122.408 308.112Z" fill="#B731A2" fill-opacity="0.6"/>
</g>
<defs>
<clipPath id="clip0_206_24">
<rect width="433" height="880" fill="white"/>
</clipPath>
</defs>
</svg>
