<svg width="158" height="866" viewBox="0 0 158 866" fill="none" xmlns="http://www.w3.org/2000/svg">
<g clip-path="url(#clip0_200_2)">
<path fill-rule="evenodd" clip-rule="evenodd" d="M-54.4549 1046.97C-87.7524 1047.56 -116.657 1066.49 -149.94 1067.44C-190.996 1068.62 -238.912 1080.98 -270.156 1053.15C-301.312 1025.4 -289.819 974.166 -300.29 933.517C-310.804 892.7 -330.191 855.727 -331.836 813.709C-334.119 755.375 -360.453 673.263 -311.629 643.847C-259.689 612.552 -199.968 685.966 -140.181 698.234C-102.682 705.929 -65.3125 692.696 -28.1427 702.017C17.7292 713.521 68.1499 722.084 99.6141 758.37C132.968 796.835 141.004 850.714 144.879 901.554C149.1 956.919 166.625 1030.62 122.804 1062.59C74.0302 1098.17 5.95703 1045.89 -54.4549 1046.97Z" stroke="#AC0091" stroke-width="2"/>
<path d="M290.227 1047.72C289.91 1044.85 273.461 914.866 168.967 916.985C64.4727 919.103 160.215 763.547 72.2755 702.111C-15.6642 640.675 46.7582 558.206 -75.0287 573.187C-196.816 588.168 -270.626 949.216 -172.669 1124.75C-50.1441 1343.86 329.03 1417.25 290.227 1047.72Z" fill="#B0299C" fill-opacity="0.65"/>
</g>
<defs>
<clipPath id="clip0_200_2">
<rect width="158" height="866" fill="white"/>
</clipPath>
</defs>
</svg>
