<svg width="955" height="955" viewBox="0 0 955 955" fill="none" xmlns="http://www.w3.org/2000/svg">
<g clip-path="url(#clip0_188_2)">
<g opacity="0.68" clip-path="url(#clip1_188_2)">
<path d="M242 235.46L245.631 227.47L1437.53 874.8L1433.9 882.42L242 235.46Z" fill="white" fill-opacity="0.49"/>
<path d="M257.61 200.6L261.241 192.62L1453.15 839.94L1449.52 847.57L257.61 200.6Z" fill="white" fill-opacity="0.49"/>
<path d="M273.223 165.75L276.853 157.76L1468.76 805.09L1465.13 812.71L273.223 165.75Z" fill="white" fill-opacity="0.49"/>
<path d="M288.834 130.9L292.464 122.91L1484.37 769.87L1480.38 777.86L288.834 130.9Z" fill="white" fill-opacity="0.49"/>
<path d="M304.082 96.04L308.076 88.0601L1499.98 735.02L1495.99 743.01L304.082 96.04Z" fill="white" fill-opacity="0.49"/>
<path d="M319.693 61.1899L323.687 53.21L1515.59 700.17L1511.6 708.15L319.693 61.1899Z" fill="white" fill-opacity="0.49"/>
<path d="M335.306 25.9801L339.299 18.3501L1531.2 665.31L1527.21 673.3L335.306 25.9801Z" fill="white" fill-opacity="0.49"/>
<path d="M350.916 -8.88L354.91 -16.5L1546.81 630.46L1542.82 638.45L350.916 -8.88Z" fill="white" fill-opacity="0.49"/>
<path d="M366.527 -43.7299L370.521 -51.3599L1562.43 595.61L1558.43 603.59L366.527 -43.7299Z" fill="white" fill-opacity="0.49"/>
<path d="M382.139 -78.5798L386.132 -86.5698L1578.04 560.75L1574.04 568.74L382.139 -78.5798Z" fill="white" fill-opacity="0.49"/>
<path d="M397.75 -113.44L401.744 -121.42L1593.65 525.9L1589.65 533.89L397.75 -113.44Z" fill="white" fill-opacity="0.49"/>
<path d="M413.361 -148.291L417.355 -156.278L1608.9 491.05L1605.27 499.03L413.361 -148.291Z" fill="white" fill-opacity="0.49"/>
<path d="M428.973 -183.144L432.603 -191.131L1624.51 456.19L1620.88 464.18L428.973 -183.144Z" fill="white" fill-opacity="0.49"/>
<path d="M444.583 -217.997L448.214 -225.985L1640.12 421.34L1636.49 428.96L444.583 -217.997Z" fill="white" fill-opacity="0.49"/>
<path d="M460.195 -252.849L463.826 -260.836L1655.73 386.49L1652.1 394.11L460.195 -252.849Z" fill="white" fill-opacity="0.49"/>
<path d="M475.807 -287.703L479.437 -295.69L1671.34 351.27L1667.71 359.26L475.807 -287.703Z" fill="white" fill-opacity="0.49"/>
<path d="M491.418 -322.556L495.049 -330.543L1686.95 316.42L1683.32 324.4L491.418 -322.556Z" fill="white" fill-opacity="0.49"/>
<path d="M506.666 -357.41L510.66 -365.397L1702.56 281.56L1698.57 289.55L506.666 -357.41Z" fill="white" fill-opacity="0.49"/>
<path d="M522.277 -392.626L526.271 -400.25L1718.18 246.71L1714.18 254.7L522.277 -392.626Z" fill="white" fill-opacity="0.49"/>
<path d="M537.889 -427.478L541.882 -435.102L1733.79 211.86L1729.79 219.85L537.889 -427.478Z" fill="white" fill-opacity="0.49"/>
<path d="M553.499 -462.331L557.493 -469.956L1749.4 177.01L1745.4 184.99L553.499 -462.331Z" fill="white" fill-opacity="0.49"/>
<path d="M569.111 -497.185L573.105 -505.172L1765.01 142.15L1761.02 150.14L569.111 -497.185Z" fill="white" fill-opacity="0.49"/>
<path d="M584.723 -532.039L588.716 -540.026L1780.62 107.3L1776.63 115.29L584.723 -532.039Z" fill="white" fill-opacity="0.49"/>
<path d="M600.334 -566.891L604.328 -574.878L1796.23 72.45L1792.24 80.4301L600.334 -566.891Z" fill="white" fill-opacity="0.49"/>
<path d="M615.945 -601.744L619.939 -609.731L1811.84 37.59L1807.85 45.58L615.945 -601.744Z" fill="white" fill-opacity="0.49"/>
<path d="M631.556 -636.597L635.186 -644.585L1827.09 2.73999L1823.46 10.36L631.556 -636.597Z" fill="white" fill-opacity="0.49"/>
</g>
<g opacity="0.88">
<path d="M611.19 69.9342C376.789 52.1788 214.73 -107.42 163 -185L1045 -184.4V590C1011.93 583.762 946.534 534.214 917.973 510.221C871.836 471.831 826.193 345 839.48 267.883C856 172 820.705 126.52 799.334 108.324C765.78 68.0147 670.5 71.5 611.19 69.9342Z" fill="#D64BC0"/>
<path d="M687.48 106.728C461.416 42.2726 334.7 -146.614 299.6 -233L1163.52 -55.3296L1008.04 703.302C976.891 690.55 922.78 628.883 899.617 599.643C862.127 552.772 841.98 433 871.378 346.481C904.5 249 881.368 204.226 864.085 182.111C839.307 135.885 752.5 125.267 687.48 106.728Z" stroke="#AC0091" stroke-width="2" stroke-linecap="round" stroke-linejoin="round"/>
</g>
<path opacity="0.7" d="M1099.3 847.527C1094.62 867.99 1070.68 916.042 1028.12 949.02C985.565 981.998 918.552 985.104 876.929 971.218C835.306 957.333 797.741 960.073 773.808 981.084C749.875 1002.1 754.141 1020.73 748.21 1047.86C742.278 1074.99 698.054 1133.46 629.688 1124.42C561.322 1115.37 518.242 1048.59 511.27 1010.04C504.299 971.492 484.32 945.548 447.795 959.343C428.753 966.468 377.244 995.975 349.461 965.555C216.475 819.756 506.692 578.769 749.146 591.741C968.187 603.434 1124.69 736.352 1099.3 847.527Z" fill="url(#paint0_linear_188_2)" fill-opacity="0.93"/>
<path opacity="0.7" d="M1202.83 957.734C1195.6 989.33 1158.63 1063.53 1092.9 1114.45C1027.16 1165.37 923.659 1170.16 859.371 1148.72C795.083 1127.28 737.063 1131.51 700.098 1163.96C663.132 1196.4 669.721 1225.18 660.56 1267.07C651.399 1308.96 583.093 1399.24 477.5 1385.27C371.907 1371.31 305.369 1268.2 294.601 1208.67C283.833 1149.15 252.974 1109.09 196.562 1130.39C167.15 1141.39 87.5936 1186.95 44.6814 1139.98C-160.719 914.853 287.529 542.747 662.007 562.777C1000.32 580.832 1242.05 786.068 1202.83 957.734Z" fill="url(#paint1_linear_188_2)" fill-opacity="0.2"/>
<g filter="url(#filter0_d_188_2)">
<path d="M1097.92 1181.92C1014.32 1412.68 804.591 1334.24 836.325 1533.39C868.058 1732.55 553.392 1825.85 465.525 1440.29C377.658 1054.73 785.525 1342.04 653.925 1041.97C522.325 741.906 807.791 707.825 934.725 753.711C1061.66 799.597 1181.52 951.154 1097.92 1181.92Z" fill="url(#paint2_linear_188_2)"/>
</g>
</g>
<defs>
<filter id="filter0_d_188_2" x="449" y="737" width="680.709" height="977.109" filterUnits="userSpaceOnUse" color-interpolation-filters="sRGB">
<feFlood flood-opacity="0" result="BackgroundImageFix"/>
<feColorMatrix in="SourceAlpha" type="matrix" values="0 0 0 0 0 0 0 0 0 0 0 0 0 0 0 0 0 0 127 0" result="hardAlpha"/>
<feOffset dy="4"/>
<feGaussianBlur stdDeviation="2"/>
<feComposite in2="hardAlpha" operator="out"/>
<feColorMatrix type="matrix" values="0 0 0 0 0 0 0 0 0 0 0 0 0 0 0 0 0 0 0.25 0"/>
<feBlend mode="normal" in2="BackgroundImageFix" result="effect1_dropShadow_188_2"/>
<feBlend mode="normal" in="SourceGraphic" in2="effect1_dropShadow_188_2" result="shape"/>
</filter>
<linearGradient id="paint0_linear_188_2" x1="315.996" y1="858.298" x2="1101.99" y2="858.298" gradientUnits="userSpaceOnUse">
<stop/>
<stop offset="1" stop-color="#910C7D"/>
</linearGradient>
<linearGradient id="paint1_linear_188_2" x1="-7.00617" y1="974.364" x2="1206.99" y2="974.364" gradientUnits="userSpaceOnUse">
<stop stop-color="white"/>
<stop offset="1" stop-color="#910C7D"/>
</linearGradient>
<linearGradient id="paint2_linear_188_2" x1="823.605" y1="743.111" x2="697.82" y2="1721.72" gradientUnits="userSpaceOnUse">
<stop stop-color="#F7E4E4"/>
<stop offset="1" stop-color="#68145B"/>
</linearGradient>
<clipPath id="clip0_188_2">
<rect width="955" height="955" fill="white"/>
</clipPath>
<clipPath id="clip1_188_2">
<rect width="992" height="2005" fill="white" transform="translate(242 -1122)"/>
</clipPath>
</defs>
</svg>
