<svg width="329" height="622" viewBox="0 0 329 622" fill="none" xmlns="http://www.w3.org/2000/svg">
<g clip-path="url(#clip0_238_2)">
<path d="M-4.05151 645.467C-1.01511 623.038 5.36914 599.634 14.7898 582.081C24.2104 564.527 37.3682 550.509 51.1488 545.999C67.1873 540.757 83.615 544.292 99.3421 549.9C117.638 556.482 142.942 553.191 161.004 535.15C179.067 517.109 189.811 494.192 203.125 470.179C222.589 435.194 247.425 405.207 278.568 408.742C303.248 411.546 324.192 435.072 338.44 465.912C347.393 485.416 353.933 507.479 358.838 530.152C377.29 616.212 368.492 644.736 368.492 644.736L-4.05151 645.467Z" fill="#822B75"/>
<path d="M648.776 272.704C599.96 420.444 477.492 370.222 496.021 497.727C514.551 625.232 330.81 684.962 279.502 438.119C228.195 191.277 466.358 375.22 389.514 183.109C312.669 -9.00111 479.36 -30.8208 553.48 -1.44345C627.599 27.9339 697.592 124.964 648.776 272.704Z" fill="url(#paint0_linear_238_2)"/>
<path d="M619.97 423.614C603.153 353.888 557.139 282.091 523.739 292.452C494.387 301.594 484.655 371.076 448.296 373.026C428.442 374.123 422.058 354.01 409.134 361.568C381.261 377.902 395.12 480.784 371.918 495.777C347.004 511.989 316.485 402.891 278.101 408.133C234.579 414.106 185.53 566.721 208.965 684.596C237.149 826.607 367.636 904.865 468.383 856.838C589.216 799.424 654.382 566.6 619.97 423.614Z" fill="url(#paint1_linear_238_2)"/>
</g>
<defs>
<linearGradient id="paint0_linear_238_2" x1="488.594" y1="-8.22949" x2="400.588" y2="616.245" gradientUnits="userSpaceOnUse">
<stop stop-color="#D158C1"/>
<stop offset="1" stop-color="#D158C1"/>
</linearGradient>
<linearGradient id="paint1_linear_238_2" x1="259.805" y1="475.664" x2="509.129" y2="730.109" gradientUnits="userSpaceOnUse">
<stop offset="0.036" stop-color="#903884"/>
<stop offset="1" stop-color="#910C7D"/>
</linearGradient>
<clipPath id="clip0_238_2">
<rect width="329" height="622" fill="white"/>
</clipPath>
</defs>
</svg>
