<svg width="21" height="14" viewBox="0 0 21 14" fill="none" xmlns="http://www.w3.org/2000/svg">
<path d="M19.0934 0H1.0936C0.803638 0.000353214 0.525652 0.115711 0.320632 0.320767C0.115612 0.525822 0.000302675 0.803829 0 1.0938V12.2723C0.000302675 12.5623 0.115612 12.8403 0.320632 13.0453C0.525652 13.2504 0.803638 13.3658 1.0936 13.3661H19.0934C19.3833 13.3657 19.6613 13.2503 19.8663 13.0453C20.0713 12.8402 20.1866 12.5623 20.187 12.2723V1.0938C20.1866 0.803844 20.0713 0.525867 19.8663 0.320822C19.6613 0.115778 19.3833 0.000403547 19.0934 0ZM19.5198 12.2723C19.5197 12.3854 19.4747 12.4938 19.3948 12.5738C19.3149 12.6538 19.2065 12.6988 19.0934 12.6989H1.0936C0.980523 12.6988 0.87212 12.6538 0.792177 12.5738C0.712234 12.4938 0.667281 12.3854 0.667181 12.2723V1.0938C0.667281 0.980714 0.712234 0.87229 0.792177 0.792311C0.87212 0.712333 0.980523 0.667332 1.0936 0.667181H19.0934C19.2065 0.667332 19.3149 0.712333 19.3948 0.792311C19.4747 0.87229 19.5197 0.980714 19.5198 1.0938V12.2723Z" fill="black" fill-opacity="0.6"/>
<path d="M9.57525 2.35059H2.5344C2.44592 2.35059 2.36107 2.38573 2.29851 2.44829C2.23595 2.51085 2.20081 2.5957 2.20081 2.68418V10.682C2.20081 10.7704 2.23595 10.8553 2.29851 10.9178C2.36107 10.9804 2.44592 11.0155 2.5344 11.0155H9.57525C9.66371 11.0155 9.74853 10.9803 9.81108 10.9178C9.87363 10.8552 9.90879 10.7704 9.90884 10.682V2.68418C9.90879 2.59572 9.87363 2.5109 9.81108 2.44835C9.74853 2.3858 9.66371 2.35064 9.57525 2.35059ZM9.24166 10.3484H2.86875V3.01777H9.24166V10.3484Z" fill="black" fill-opacity="0.6"/>
<path d="M17.5279 4.44318H12.7147C12.6262 4.44318 12.5414 4.47832 12.4788 4.54088C12.4163 4.60344 12.3811 4.68829 12.3811 4.77677C12.3811 4.86524 12.4163 4.95009 12.4788 5.01265C12.5414 5.07521 12.6262 5.11036 12.7147 5.11036H17.5279C17.6164 5.11036 17.7012 5.07521 17.7638 5.01265C17.8264 4.95009 17.8615 4.86524 17.8615 4.77677C17.8615 4.68829 17.8264 4.60344 17.7638 4.54088C17.7012 4.47832 17.6164 4.44318 17.5279 4.44318Z" fill="black" fill-opacity="0.6"/>
<path d="M17.5279 6.34949H12.7147C12.6262 6.34949 12.5414 6.38463 12.4788 6.44719C12.4163 6.50975 12.3811 6.5946 12.3811 6.68308C12.3811 6.77155 12.4163 6.8564 12.4788 6.91896C12.5414 6.98152 12.6262 7.01667 12.7147 7.01667H17.5279C17.6164 7.01667 17.7012 6.98152 17.7638 6.91896C17.8264 6.8564 17.8615 6.77155 17.8615 6.68308C17.8615 6.5946 17.8264 6.50975 17.7638 6.44719C17.7012 6.38463 17.6164 6.34949 17.5279 6.34949Z" fill="black" fill-opacity="0.6"/>
<path d="M17.5279 8.25562H12.7147C12.6262 8.25562 12.5414 8.29076 12.4788 8.35332C12.4163 8.41588 12.3811 8.50073 12.3811 8.58921C12.3811 8.67768 12.4163 8.76253 12.4788 8.82509C12.5414 8.88765 12.6262 8.9228 12.7147 8.9228H17.5279C17.6164 8.9228 17.7012 8.88765 17.7638 8.82509C17.8264 8.76253 17.8615 8.67768 17.8615 8.58921C17.8615 8.50073 17.8264 8.41588 17.7638 8.35332C17.7012 8.29076 17.6164 8.25562 17.5279 8.25562Z" fill="black" fill-opacity="0.6"/>
<path d="M3.69771 9.68531H8.4122C8.50067 9.68531 8.58552 9.65016 8.64808 9.5876C8.71064 9.52504 8.74579 9.44019 8.74579 9.35172C8.74502 8.83649 8.59643 8.3323 8.31768 7.899C8.03892 7.46569 7.6417 7.12146 7.17315 6.90717C7.43557 6.6793 7.62212 6.3767 7.70781 6.03989C7.7935 5.70307 7.77424 5.34812 7.65262 5.02255C7.531 4.69698 7.31281 4.41634 7.02728 4.2182C6.74175 4.02006 6.4025 3.91388 6.05496 3.91388C5.70741 3.91388 5.36816 4.02006 5.08263 4.2182C4.7971 4.41634 4.57891 4.69698 4.45729 5.02255C4.33567 5.34812 4.31641 5.70307 4.4021 6.03989C4.48779 6.3767 4.67434 6.6793 4.93676 6.90717C4.46829 7.12152 4.07114 7.46577 3.79246 7.89907C3.51377 8.33237 3.36524 8.83653 3.3645 9.35172C3.36448 9.3955 3.37308 9.43886 3.38981 9.47932C3.40654 9.51978 3.43108 9.55654 3.46202 9.58752C3.49296 9.6185 3.5297 9.64308 3.57014 9.65985C3.61058 9.67663 3.65393 9.68528 3.69771 9.68531ZM5.01663 5.62275C5.01659 5.41738 5.07746 5.21661 5.19153 5.04584C5.3056 4.87506 5.46775 4.74194 5.65747 4.66333C5.8472 4.58471 6.05598 4.56412 6.25741 4.60416C6.45883 4.6442 6.64386 4.74308 6.78909 4.88829C6.93432 5.03349 7.03323 5.2185 7.07331 5.41992C7.11339 5.62134 7.09284 5.83012 7.01426 6.01986C6.93568 6.2096 6.80259 6.37178 6.63184 6.48588C6.46108 6.59998 6.26032 6.66088 6.05496 6.66088C5.7797 6.66058 5.5158 6.55111 5.32115 6.3565C5.1265 6.16188 5.01698 5.898 5.01663 5.62275ZM6.05496 7.32806C6.53369 7.32865 6.99677 7.49868 7.36214 7.80802C7.72752 8.11736 7.9716 8.54604 8.05116 9.01813H4.05875C4.13831 8.54604 4.38239 8.11736 4.74777 7.80802C5.11314 7.49868 5.57622 7.32865 6.05496 7.32806Z" fill="black" fill-opacity="0.6"/>
</svg>
