<svg width="16" height="17" viewBox="0 0 16 17" fill="none" xmlns="http://www.w3.org/2000/svg">
<path d="M13.8003 0H2.19971C0.986816 0 0 1.13942 0 2.54037V10.7391C0 12.1369 0.98252 13.2745 2.19189 13.2795V17L6.82168 13.2795H13.8003C15.0132 13.2795 16 12.1399 16 10.7391V2.54037C16 1.13942 15.0132 0 13.8003 0ZM15.0625 10.7391C15.0625 11.5428 14.4963 12.1968 13.8003 12.1968H6.52754L3.12939 14.9277V12.1968H2.19971C1.50371 12.1968 0.9375 11.5428 0.9375 10.7391V2.54037C0.9375 1.73647 1.50371 1.08269 2.19971 1.08269H13.8003C14.4963 1.08269 15.0625 1.73647 15.0625 2.54037V10.7391Z" fill="black" fill-opacity="0.6"/>
<path d="M4.28235 3.8255H11.7177V4.90819H4.28235V3.8255Z" fill="black" fill-opacity="0.6"/>
<path d="M4.28235 6.13531H11.7177V7.218H4.28235V6.13531Z" fill="black" fill-opacity="0.6"/>
<path d="M4.28235 8.44495H11.7177V9.52763H4.28235V8.44495Z" fill="black" fill-opacity="0.6"/>
</svg>
