<svg width="368" height="504" viewBox="0 0 368 504" fill="none" xmlns="http://www.w3.org/2000/svg">
<g clip-path="url(#clip0_172_76)">
<path d="M-38 512C-36.1359 499.224 -32.2164 485.893 -26.4329 475.895C-20.6493 465.897 -12.5715 457.912 -4.11125 455.343C5.73512 452.357 15.8205 454.371 25.4757 457.565C36.7082 461.314 52.2425 459.439 63.3316 449.163C74.4207 438.887 81.0169 425.834 89.1903 412.156C101.14 392.229 116.387 375.148 135.506 377.162C150.658 378.759 163.516 392.159 172.263 409.726C177.76 420.835 181.775 433.402 184.786 446.317C196.114 495.336 190.713 511.583 190.713 511.583L-38 512V512Z" fill="#910C7D" fill-opacity="0.5"/>
<path d="M358.046 274.521C328.096 358.815 252.959 330.161 264.327 402.91C275.696 475.659 162.966 509.738 131.487 368.9C100.009 228.062 246.128 333.012 198.982 223.402C151.836 113.792 254.105 101.343 299.579 118.104C345.054 134.866 387.996 190.227 358.046 274.521Z" fill="#C74DB7"/>
<path d="M350.369 373.483C340.032 333.661 311.748 292.655 291.217 298.572C273.175 303.794 267.193 343.477 244.843 344.591C232.639 345.218 228.715 333.73 220.77 338.047C203.637 347.376 212.156 406.135 197.894 414.698C182.58 423.957 163.82 361.648 140.226 364.641C113.473 368.053 83.3226 455.217 97.7278 522.539C115.052 603.646 195.262 648.341 257.19 620.911C331.466 588.12 371.523 455.147 350.369 373.483Z" fill="url(#paint0_linear_172_76)"/>
</g>
<defs>
<linearGradient id="paint0_linear_172_76" x1="128.979" y1="403.211" x2="270.781" y2="558.963" gradientUnits="userSpaceOnUse">
<stop offset="0.036" stop-color="#843677"/>
<stop offset="1" stop-color="#910C7D"/>
</linearGradient>
<clipPath id="clip0_172_76">
<path d="M0 25C0 11.1929 11.1929 0 25 0H343C356.807 0 368 11.1929 368 25V504H0V25Z" fill="white"/>
</clipPath>
</defs>
</svg>
