<svg width="1027" height="1044" viewBox="0 0 1027 1044" fill="none" xmlns="http://www.w3.org/2000/svg">
<g clip-path="url(#clip0_272_432)">
<path d="M0 1044.79C5.2 1009.15 16.1333 971.968 32.2667 944.08C48.4 916.192 70.9334 893.92 94.5334 886.755C122 878.427 150.133 884.043 177.067 892.952C208.4 903.41 251.733 898.181 282.667 869.518C313.6 840.856 332 804.446 354.8 766.294C388.133 710.712 430.667 663.07 484 668.686C526.267 673.14 562.133 710.518 586.533 759.516C601.867 790.502 613.067 825.556 621.467 861.578C653.067 998.307 638 1043.62 638 1043.62L0 1044.79V1044.79Z" fill="#910C7D" fill-opacity="0.5"/>
<path d="M1118 452.554C1034.4 687.278 824.667 607.487 856.4 810.062C888.133 1012.64 573.467 1107.53 485.6 715.359C397.733 323.184 805.6 615.427 674 310.209C542.4 4.99007 827.867 -29.6762 954.8 16.9974C1081.73 63.6711 1201.6 217.83 1118 452.554Z" fill="url(#paint0_linear_272_432)"/>
<path d="M1068.67 692.313C1039.87 581.536 961.067 467.466 903.867 483.928C853.6 498.453 836.934 608.843 774.667 611.941C740.667 613.684 729.734 581.729 707.6 593.737C659.867 619.688 683.6 783.143 643.867 806.964C601.2 832.721 548.934 659.39 483.2 667.717C408.667 677.207 324.667 919.678 364.8 1106.95C413.067 1332.58 636.534 1456.91 809.067 1380.6C1016 1289.39 1127.6 919.484 1068.67 692.313V692.313Z" fill="url(#paint1_linear_272_432)"/>
<path d="M760.534 393.485C750.267 413.239 752.667 437.835 753.334 445.388C754 452.941 758.667 491.868 780.267 503.875C801.867 515.883 824.934 496.516 835.467 468.628C846 440.74 844.8 406.267 828.534 384.189C808.534 356.689 774.667 366.178 760.534 393.485V393.485Z" fill="#910C7D" fill-opacity="0.52"/>
</g>
<defs>
<linearGradient id="paint0_linear_272_432" x1="843.68" y1="6.21601" x2="713.613" y2="1001.06" gradientUnits="userSpaceOnUse">
<stop/>
<stop offset="1" stop-color="#68145B"/>
</linearGradient>
<linearGradient id="paint1_linear_272_432" x1="451.867" y1="775.009" x2="846.272" y2="1208.88" gradientUnits="userSpaceOnUse">
<stop offset="0.036" stop-color="#68145B"/>
<stop offset="1" stop-color="#910C7D"/>
</linearGradient>
<clipPath id="clip0_272_432">
<rect width="1027" height="1044" fill="white"/>
</clipPath>
</defs>
</svg>
