<svg width="586" height="504" viewBox="0 0 586 504" fill="none" xmlns="http://www.w3.org/2000/svg">
<g clip-path="url(#clip0_170_2)">
<g opacity="0.72" clip-path="url(#clip1_170_2)">
<path d="M730.8 111.852C647.2 346.576 437.466 266.785 469.2 469.36C500.933 671.936 186.267 766.832 98.3998 374.657C10.5332 -17.5176 418.4 274.725 286.8 -30.4933C155.2 -335.712 440.666 -370.378 567.6 -323.705C694.533 -277.031 814.4 -122.872 730.8 111.852Z" fill="#C74DB7"/>
<path d="M689.467 366.611C660.667 255.834 581.867 141.764 524.667 158.226C474.4 172.751 457.733 283.141 395.467 286.239C361.467 287.982 350.534 256.027 328.4 268.035C280.667 293.986 304.4 457.441 264.667 481.262C222 507.019 169.733 333.688 104 342.015C29.4668 351.505 -54.5332 593.976 -14.3999 781.251C33.8668 1006.87 257.333 1131.21 429.867 1054.9C636.8 963.685 748.4 593.782 689.467 366.611Z" fill="url(#paint0_linear_170_2)"/>
<path d="M434.333 67.7834C424.067 87.5374 426.467 112.133 427.133 119.686C427.8 127.239 432.467 166.166 454.067 178.173C475.667 190.181 498.733 170.814 509.267 142.926C519.8 115.038 518.6 80.5654 502.333 58.4874C482.333 30.9868 448.467 40.4764 434.333 67.7834V67.7834Z" fill="#910C7D" fill-opacity="0.52"/>
</g>
</g>
<defs>
<linearGradient id="paint0_linear_170_2" x1="72.6668" y1="449.307" x2="467.072" y2="883.173" gradientUnits="userSpaceOnUse">
<stop offset="0.036" stop-color="#843677"/>
<stop offset="1" stop-color="#910C7D"/>
</linearGradient>
<clipPath id="clip0_170_2">
<path d="M0 25C0 11.1929 11.1929 0 25 0H561C574.807 0 586 11.1929 586 25V504H0V25Z" fill="white"/>
</clipPath>
<clipPath id="clip1_170_2">
<rect width="1926" height="581" fill="white"/>
</clipPath>
</defs>
</svg>
