<svg width="321" height="664" viewBox="0 0 321 664" fill="none" xmlns="http://www.w3.org/2000/svg">
<g opacity="0.72">
<path fill-rule="evenodd" clip-rule="evenodd" d="M-108.046 424.961C-120.341 404.559 -142.274 393.088 -154.786 372.817C-170.218 347.814 -194.953 322.356 -189.128 293.595C-183.319 264.914 -147.864 254.665 -126.755 234.413C-105.559 214.077 -89.8926 189.554 -64.7833 174.299C-29.9232 153.12 10.8605 109.005 46.3489 129.246C84.1029 150.78 60.6032 212.607 74.5251 253.756C83.257 279.565 104.742 298.203 112.361 324.36C121.764 356.641 134.596 390.739 123.679 422.502C112.105 456.173 82.0319 479.401 52.3255 499.025C19.9757 520.396 -18.8208 556.212 -54.0761 539.93C-93.3162 521.808 -85.739 461.976 -108.046 424.961Z" fill="#AC0091" fill-opacity="0.6"/>
<path fill-rule="evenodd" clip-rule="evenodd" d="M-110.977 441.954C-124.409 418.972 -148.921 406.379 -162.601 383.551C-179.475 355.393 -206.841 326.921 -199.631 294.011C-192.441 261.194 -152.184 248.731 -127.904 225.183C-103.523 201.538 -85.2946 173.241 -56.6082 155.301C-16.7819 130.394 30.2379 79.2136 69.8612 101.503C112.014 125.215 84.1191 196.202 98.9317 242.796C108.222 272.02 132.07 292.791 140.097 322.436C150.002 359.021 163.739 397.604 150.713 434.047C136.904 472.679 102.437 499.816 68.4637 522.838C31.4675 547.909 -13.1258 589.586 -52.5732 571.805C-96.4791 552.014 -86.6059 483.652 -110.977 441.954Z" stroke="#AC0091" stroke-width="2"/>
</g>
</svg>
