<svg width="844" height="888" viewBox="0 0 844 888" fill="none" xmlns="http://www.w3.org/2000/svg">
<g clip-path="url(#clip0_262_2)">
<g opacity="0.68" clip-path="url(#clip1_262_2)">
<path d="M74 419.46L77.6305 411.47L1269.53 1058.8L1265.9 1066.42L74 419.46Z" fill="white" fill-opacity="0.49"/>
<path d="M89.6104 384.6L93.2409 376.62L1285.15 1023.94L1281.52 1031.57L89.6104 384.6Z" fill="white" fill-opacity="0.49"/>
<path d="M105.223 349.75L108.853 341.76L1300.76 989.09L1297.13 996.71L105.223 349.75Z" fill="white" fill-opacity="0.49"/>
<path d="M120.834 314.9L124.464 306.91L1316.37 953.87L1312.38 961.86L120.834 314.9Z" fill="white" fill-opacity="0.49"/>
<path d="M136.082 280.04L140.076 272.06L1331.98 919.02L1327.99 927.01L136.082 280.04Z" fill="white" fill-opacity="0.49"/>
<path d="M151.693 245.19L155.687 237.21L1347.59 884.17L1343.6 892.15L151.693 245.19Z" fill="white" fill-opacity="0.49"/>
<path d="M167.306 209.98L171.299 202.35L1363.2 849.31L1359.21 857.3L167.306 209.98Z" fill="white" fill-opacity="0.49"/>
<path d="M182.916 175.12L186.91 167.5L1378.81 814.46L1374.82 822.45L182.916 175.12Z" fill="white" fill-opacity="0.49"/>
<path d="M198.527 140.27L202.521 132.64L1394.43 779.61L1390.43 787.59L198.527 140.27Z" fill="white" fill-opacity="0.49"/>
<path d="M214.139 105.42L218.132 97.4301L1410.04 744.75L1406.04 752.74L214.139 105.42Z" fill="white" fill-opacity="0.49"/>
<path d="M229.75 70.5601L233.744 62.5801L1425.65 709.9L1421.65 717.89L229.75 70.5601Z" fill="white" fill-opacity="0.49"/>
<path d="M245.361 35.7089L249.355 27.7219L1440.9 675.05L1437.27 683.03L245.361 35.7089Z" fill="white" fill-opacity="0.49"/>
<path d="M260.973 0.856018L264.603 -7.13098L1456.51 640.19L1452.88 648.18L260.973 0.856018Z" fill="white" fill-opacity="0.49"/>
<path d="M276.583 -33.997L280.214 -41.985L1472.12 605.34L1468.49 612.96L276.583 -33.997Z" fill="white" fill-opacity="0.49"/>
<path d="M292.195 -68.8489L295.826 -76.8359L1487.73 570.49L1484.1 578.11L292.195 -68.8489Z" fill="white" fill-opacity="0.49"/>
<path d="M307.807 -103.703L311.437 -111.69L1503.34 535.27L1499.71 543.26L307.807 -103.703Z" fill="white" fill-opacity="0.49"/>
<path d="M323.418 -138.556L327.049 -146.543L1518.95 500.42L1515.32 508.4L323.418 -138.556Z" fill="white" fill-opacity="0.49"/>
<path d="M338.666 -173.41L342.66 -181.397L1534.56 465.56L1530.57 473.55L338.666 -173.41Z" fill="white" fill-opacity="0.49"/>
<path d="M354.277 -208.626L358.271 -216.25L1550.18 430.71L1546.18 438.7L354.277 -208.626Z" fill="white" fill-opacity="0.49"/>
<path d="M369.889 -243.478L373.882 -251.102L1565.79 395.86L1561.79 403.85L369.889 -243.478Z" fill="white" fill-opacity="0.49"/>
<path d="M385.499 -278.331L389.493 -285.956L1581.4 361.01L1577.4 368.99L385.499 -278.331Z" fill="white" fill-opacity="0.49"/>
<path d="M401.111 -313.185L405.105 -321.172L1597.01 326.15L1593.02 334.14L401.111 -313.185Z" fill="white" fill-opacity="0.49"/>
<path d="M416.723 -348.039L420.716 -356.026L1612.62 291.3L1608.63 299.29L416.723 -348.039Z" fill="white" fill-opacity="0.49"/>
<path d="M432.334 -382.891L436.328 -390.878L1628.23 256.45L1624.24 264.43L432.334 -382.891Z" fill="white" fill-opacity="0.49"/>
<path d="M447.945 -417.744L451.939 -425.731L1643.84 221.59L1639.85 229.58L447.945 -417.744Z" fill="white" fill-opacity="0.49"/>
<path d="M463.556 -452.597L467.186 -460.585L1659.09 186.74L1655.46 194.36L463.556 -452.597Z" fill="white" fill-opacity="0.49"/>
<path d="M479.168 -487.451L482.799 -495.438L1674.7 151.89L1671.07 159.51L479.168 -487.451Z" fill="white" fill-opacity="0.49"/>
<path d="M494.779 -522.304L498.41 -530.292L1690.31 117.03L1686.68 124.66L494.779 -522.304Z" fill="white" fill-opacity="0.49"/>
<path d="M510.391 -557.156L514.021 -565.143L1705.93 81.8199L1702.3 89.81L510.391 -557.156Z" fill="white" fill-opacity="0.49"/>
<path d="M526.002 -592.01L529.632 -599.997L1721.54 46.965L1717.91 54.952L526.002 -592.01Z" fill="white" fill-opacity="0.49"/>
<path d="M541.612 -626.863L545.243 -634.85L1737.15 12.111L1733.15 20.0979L541.612 -626.863Z" fill="white" fill-opacity="0.49"/>
</g>
<g opacity="0.88">
<path d="M447.19 254.934C212.789 237.179 50.7296 77.58 -1 0L881 0.599845V775C847.925 768.762 782.534 719.214 753.973 695.221C707.836 656.831 662.193 530 675.48 452.883C692 357 656.705 311.52 635.334 293.324C601.78 253.015 506.5 256.5 447.19 254.934Z" fill="#AC0091" fill-opacity="0.6"/>
<path d="M523.48 291.728C297.416 227.273 170.7 38.3862 135.6 -48L999.52 129.67L844.04 888.302C812.891 875.55 758.78 813.883 735.617 784.643C698.127 737.772 677.98 618 707.378 531.481C740.5 434 717.368 389.226 700.085 367.111C675.307 320.885 588.5 310.267 523.48 291.728Z" stroke="#AC0091" stroke-width="2" stroke-linecap="round" stroke-linejoin="round"/>
</g>
</g>
<defs>
<clipPath id="clip0_262_2">
<rect width="844" height="888" fill="white"/>
</clipPath>
<clipPath id="clip1_262_2">
<rect width="992" height="2005" fill="white" transform="translate(74 -938)"/>
</clipPath>
</defs>
</svg>
