<svg width="212" height="55" viewBox="0 0 212 55" fill="none" xmlns="http://www.w3.org/2000/svg">
<path d="M74.3684 24C74.3684 24 74.5384 23.73 74.8784 23.19C75.2184 22.65 75.6684 21.93 76.2284 21.03C76.8084 20.13 77.4484 19.11 78.1484 17.97C78.8684 16.83 79.5984 15.66 80.3384 14.46C81.0984 13.26 81.8284 12.09 82.5284 10.95C83.2484 9.81 83.8884 8.79 84.4484 7.89C85.0284 6.99 85.4884 6.27 85.8284 5.73C86.1684 5.19 86.3384 4.92 86.3384 4.92L86.8184 6.12H78.8684C78.4484 6.12 78.0084 6.03 77.5484 5.85C77.1084 5.65 76.7284 5.39 76.4084 5.07C76.1084 4.73 75.9584 4.36 75.9584 3.96V0.809998H79.9484V1.23C79.9484 1.67 80.0184 1.9 80.1584 1.92C80.2984 1.92 80.5484 1.92 80.9084 1.92H93.1784L81.5384 20.28L81.2984 19.8H93.1484V24H74.3684Z" fill="#AC0091"/>
<path d="M102.349 1.92L108.799 17.82L106.279 17.31L112.129 1.92H117.289L107.209 25.02L97.1288 1.92H102.349ZM126.119 9.78L125.999 10.89L126.659 10.05L133.859 1.92H139.499L130.379 11.82L139.529 24H134.009L127.199 14.58L126.119 15.66V24H121.709V1.92H126.119V9.78Z" fill="white"/>
<path d="M12.5156 48.415C12.2256 48.645 11.8606 48.83 11.4206 48.97C10.9906 49.11 10.5656 49.18 10.1456 49.18C9.39561 49.18 8.74061 49.045 8.18061 48.775C7.63061 48.495 7.20061 48.1 6.89061 47.59C6.59061 47.07 6.44061 46.445 6.44061 45.715C6.44061 44.985 6.60561 44.365 6.93561 43.855C7.26561 43.335 7.69561 42.94 8.22561 42.67C8.76561 42.4 9.33061 42.265 9.92061 42.265C10.5106 42.265 11.0206 42.345 11.4506 42.505C11.8906 42.665 12.2656 42.875 12.5756 43.135L11.5556 44.485C11.4156 44.375 11.2206 44.265 10.9706 44.155C10.7306 44.035 10.4456 43.975 10.1156 43.975C9.82561 43.975 9.56061 44.05 9.32061 44.2C9.08061 44.35 8.89061 44.555 8.75061 44.815C8.61061 45.075 8.54061 45.375 8.54061 45.715C8.54061 46.035 8.61561 46.33 8.76561 46.6C8.91561 46.87 9.12061 47.085 9.38061 47.245C9.65061 47.395 9.96561 47.47 10.3256 47.47C10.5556 47.47 10.7656 47.44 10.9556 47.38C11.1556 47.31 11.3256 47.215 11.4656 47.095L12.5156 48.415ZM16.0183 42.445L16.2133 44.245L16.1683 43.975C16.3583 43.585 16.6183 43.255 16.9483 42.985C17.2783 42.705 17.6033 42.49 17.9233 42.34C18.2533 42.19 18.5033 42.115 18.6733 42.115L18.5683 44.215C18.0783 44.155 17.6583 44.235 17.3083 44.455C16.9583 44.675 16.6883 44.965 16.4983 45.325C16.3083 45.685 16.2133 46.055 16.2133 46.435V49H14.1283V42.445H16.0183ZM23.2127 49.18C22.4127 49.18 21.7327 49.03 21.1727 48.73C20.6227 48.43 20.2027 48.015 19.9127 47.485C19.6227 46.955 19.4777 46.345 19.4777 45.655C19.4777 44.995 19.6477 44.4 19.9877 43.87C20.3277 43.34 20.7827 42.92 21.3527 42.61C21.9227 42.29 22.5577 42.13 23.2577 42.13C24.1977 42.13 24.9677 42.405 25.5677 42.955C26.1777 43.495 26.5727 44.28 26.7527 45.31L21.6527 46.93L21.1877 45.79L24.8777 44.545L24.4427 44.74C24.3627 44.48 24.2177 44.255 24.0077 44.065C23.8077 43.865 23.5027 43.765 23.0927 43.765C22.7827 43.765 22.5077 43.84 22.2677 43.99C22.0377 44.13 21.8577 44.335 21.7277 44.605C21.6077 44.865 21.5477 45.175 21.5477 45.535C21.5477 45.945 21.6227 46.29 21.7727 46.57C21.9227 46.84 22.1277 47.045 22.3877 47.185C22.6477 47.325 22.9377 47.395 23.2577 47.395C23.4877 47.395 23.7077 47.355 23.9177 47.275C24.1377 47.195 24.3527 47.09 24.5627 46.96L25.4927 48.52C25.1427 48.72 24.7627 48.88 24.3527 49C23.9527 49.12 23.5727 49.18 23.2127 49.18ZM31.0387 49.18C30.4287 49.18 29.8737 49.06 29.3737 48.82C28.8837 48.57 28.4937 48.19 28.2037 47.68C27.9137 47.17 27.7687 46.52 27.7687 45.73C27.7687 44.99 27.9187 44.35 28.2187 43.81C28.5187 43.27 28.9137 42.855 29.4037 42.565C29.8937 42.265 30.4137 42.115 30.9637 42.115C31.6137 42.115 32.1037 42.225 32.4337 42.445C32.7737 42.655 33.0537 42.89 33.2737 43.15L33.1837 43.405L33.3787 42.445H35.3287V49H33.2287V47.575L33.3937 48.025C33.3737 48.025 33.3137 48.085 33.2137 48.205C33.1137 48.315 32.9637 48.45 32.7637 48.61C32.5737 48.76 32.3337 48.89 32.0437 49C31.7637 49.12 31.4287 49.18 31.0387 49.18ZM31.6387 47.47C31.8887 47.47 32.1137 47.435 32.3137 47.365C32.5137 47.285 32.6887 47.175 32.8387 47.035C32.9887 46.885 33.1187 46.7 33.2287 46.48V44.875C33.1487 44.655 33.0287 44.47 32.8687 44.32C32.7087 44.16 32.5187 44.04 32.2987 43.96C32.0787 43.87 31.8337 43.825 31.5637 43.825C31.2637 43.825 30.9837 43.905 30.7237 44.065C30.4737 44.215 30.2737 44.425 30.1237 44.695C29.9737 44.965 29.8987 45.275 29.8987 45.625C29.8987 45.975 29.9787 46.29 30.1387 46.57C30.2987 46.85 30.5087 47.07 30.7687 47.23C31.0387 47.39 31.3287 47.47 31.6387 47.47ZM38.1076 39.565H40.2076V42.415H41.7976V44.05H40.2076V49H38.1076V44.05H37.0876V42.415H38.1076V39.565ZM46.6209 49.18C45.8209 49.18 45.1409 49.03 44.5809 48.73C44.0309 48.43 43.6109 48.015 43.3209 47.485C43.0309 46.955 42.8859 46.345 42.8859 45.655C42.8859 44.995 43.0559 44.4 43.3959 43.87C43.7359 43.34 44.1909 42.92 44.7609 42.61C45.3309 42.29 45.9659 42.13 46.6659 42.13C47.6059 42.13 48.3759 42.405 48.9759 42.955C49.5859 43.495 49.9809 44.28 50.1609 45.31L45.0609 46.93L44.5959 45.79L48.2859 44.545L47.8509 44.74C47.7709 44.48 47.6259 44.255 47.4159 44.065C47.2159 43.865 46.9109 43.765 46.5009 43.765C46.1909 43.765 45.9159 43.84 45.6759 43.99C45.4459 44.13 45.2659 44.335 45.1359 44.605C45.0159 44.865 44.9559 45.175 44.9559 45.535C44.9559 45.945 45.0309 46.29 45.1809 46.57C45.3309 46.84 45.5359 47.045 45.7959 47.185C46.0559 47.325 46.3459 47.395 46.6659 47.395C46.8959 47.395 47.1159 47.355 47.3259 47.275C47.5459 47.195 47.7609 47.09 47.9709 46.96L48.9009 48.52C48.5509 48.72 48.1709 48.88 47.7609 49C47.3609 49.12 46.9809 49.18 46.6209 49.18ZM54.3569 49.18C53.7469 49.18 53.2019 49.04 52.7219 48.76C52.2419 48.47 51.8619 48.055 51.5819 47.515C51.3119 46.975 51.1769 46.335 51.1769 45.595C51.1769 44.855 51.3269 44.225 51.6269 43.705C51.9269 43.185 52.3369 42.79 52.8569 42.52C53.3769 42.25 53.9669 42.115 54.6269 42.115C55.0469 42.115 55.4469 42.18 55.8269 42.31C56.2169 42.44 56.5419 42.64 56.8019 42.91V43.57V37.165H58.8869V49H56.7869V47.725L56.9519 48.175C56.6119 48.455 56.2319 48.695 55.8119 48.895C55.3919 49.085 54.9069 49.18 54.3569 49.18ZM55.0469 47.41C55.3269 47.41 55.5719 47.375 55.7819 47.305C56.0019 47.225 56.1919 47.115 56.3519 46.975C56.5219 46.825 56.6669 46.64 56.7869 46.42V44.815C56.7069 44.595 56.5819 44.41 56.4119 44.26C56.2519 44.1 56.0519 43.98 55.8119 43.9C55.5819 43.81 55.3269 43.765 55.0469 43.765C54.7369 43.765 54.4469 43.845 54.1769 44.005C53.9169 44.155 53.7069 44.365 53.5469 44.635C53.3869 44.905 53.3069 45.215 53.3069 45.565C53.3069 45.915 53.3869 46.23 53.5469 46.51C53.7069 46.79 53.9169 47.01 54.1769 47.17C54.4469 47.33 54.7369 47.41 55.0469 47.41ZM70.2302 49.18C69.6802 49.18 69.2152 49.09 68.8352 48.91C68.4652 48.72 68.1402 48.475 67.8602 48.175L68.0252 47.725V49H65.9252V37.165H68.0102V43.57V42.895C68.2702 42.675 68.6152 42.49 69.0452 42.34C69.4752 42.19 69.9652 42.115 70.5152 42.115C71.0852 42.115 71.6052 42.25 72.0752 42.52C72.5452 42.79 72.9202 43.185 73.2002 43.705C73.4902 44.215 73.6352 44.84 73.6352 45.58C73.6352 46.32 73.4752 46.96 73.1552 47.5C72.8452 48.04 72.4302 48.455 71.9102 48.745C71.3902 49.035 70.8302 49.18 70.2302 49.18ZM69.7652 47.41C70.0752 47.41 70.3602 47.33 70.6202 47.17C70.8902 47.01 71.1052 46.79 71.2652 46.51C71.4252 46.23 71.5052 45.915 71.5052 45.565C71.5052 45.215 71.4252 44.905 71.2652 44.635C71.1052 44.365 70.8902 44.155 70.6202 44.005C70.3602 43.845 70.0752 43.765 69.7652 43.765C69.4952 43.765 69.2402 43.81 69.0002 43.9C68.7702 43.98 68.5702 44.1 68.4002 44.26C68.2402 44.41 68.1152 44.595 68.0252 44.815V46.42C68.1452 46.64 68.2852 46.825 68.4452 46.975C68.6152 47.115 68.8102 47.225 69.0302 47.305C69.2502 47.375 69.4952 47.41 69.7652 47.41ZM75.8106 52.15L80.1756 42.445H82.0656L77.8356 52.15H75.8106ZM77.5656 49.03L74.3556 42.445H76.7106L79.1856 47.98L77.5656 49.03ZM87.7712 49C87.7712 49 87.8562 48.865 88.0262 48.595C88.1962 48.325 88.4212 47.965 88.7012 47.515C88.9912 47.065 89.3112 46.555 89.6612 45.985C90.0212 45.415 90.3862 44.83 90.7562 44.23C91.1362 43.63 91.5012 43.045 91.8512 42.475C92.2112 41.905 92.5312 41.395 92.8112 40.945C93.1012 40.495 93.3312 40.135 93.5012 39.865C93.6712 39.595 93.7562 39.46 93.7562 39.46L93.9962 40.06H90.0212C89.8112 40.06 89.5912 40.015 89.3612 39.925C89.1412 39.825 88.9512 39.695 88.7912 39.535C88.6412 39.365 88.5662 39.18 88.5662 38.98V37.405H90.5612V37.615C90.5612 37.835 90.5962 37.95 90.6662 37.96C90.7362 37.96 90.8612 37.96 91.0412 37.96H97.1762L91.3562 47.14L91.2362 46.9H97.1612V49H87.7712ZM99.0014 49V37.165H101.056V43.765L101.041 43.51C101.271 43.1 101.596 42.77 102.016 42.52C102.436 42.26 102.951 42.13 103.561 42.13C104.181 42.13 104.696 42.315 105.106 42.685C105.526 43.045 105.741 43.515 105.751 44.095V49H103.651V44.875C103.641 44.585 103.561 44.355 103.411 44.185C103.271 44.005 103.031 43.915 102.691 43.915C102.371 43.915 102.091 44.02 101.851 44.23C101.611 44.44 101.426 44.725 101.296 45.085C101.166 45.445 101.101 45.86 101.101 46.33V49H99.0014ZM110.023 49.315C109.433 49.315 108.938 49.135 108.538 48.775C108.138 48.405 107.928 47.93 107.908 47.35V42.445H110.008V46.57C110.028 46.86 110.103 47.095 110.233 47.275C110.363 47.445 110.583 47.53 110.893 47.53C111.203 47.53 111.468 47.425 111.688 47.215C111.918 47.005 112.093 46.72 112.213 46.36C112.343 45.99 112.408 45.575 112.408 45.115V42.445H114.508V49H112.603L112.438 47.8L112.468 47.935C112.318 48.205 112.128 48.445 111.898 48.655C111.668 48.865 111.393 49.025 111.073 49.135C110.763 49.255 110.413 49.315 110.023 49.315ZM118.557 42.445L118.752 44.245L118.707 43.975C118.897 43.585 119.157 43.255 119.487 42.985C119.817 42.705 120.142 42.49 120.462 42.34C120.792 42.19 121.042 42.115 121.212 42.115L121.107 44.215C120.617 44.155 120.197 44.235 119.847 44.455C119.497 44.675 119.227 44.965 119.037 45.325C118.847 45.685 118.752 46.055 118.752 46.435V49H116.667V42.445H118.557ZM122.82 42.445H124.92V49H122.82V42.445ZM122.775 40.12C122.775 39.81 122.895 39.555 123.135 39.355C123.385 39.155 123.65 39.055 123.93 39.055C124.21 39.055 124.465 39.155 124.695 39.355C124.935 39.555 125.055 39.81 125.055 40.12C125.055 40.43 124.935 40.685 124.695 40.885C124.465 41.075 124.21 41.17 123.93 41.17C123.65 41.17 123.385 41.075 123.135 40.885C122.895 40.685 122.775 40.43 122.775 40.12ZM128.987 42.445L129.152 43.615L129.122 43.51C129.352 43.1 129.677 42.77 130.097 42.52C130.517 42.26 131.032 42.13 131.642 42.13C132.262 42.13 132.777 42.315 133.187 42.685C133.607 43.045 133.822 43.515 133.832 44.095V49H131.732V44.875C131.722 44.585 131.642 44.355 131.492 44.185C131.352 44.005 131.112 43.915 130.772 43.915C130.452 43.915 130.172 44.02 129.932 44.23C129.692 44.44 129.507 44.725 129.377 45.085C129.247 45.445 129.182 45.86 129.182 46.33V49H127.082V42.445H128.987ZM142.877 37.96L146.102 45.91L144.842 45.655L147.767 37.96H150.347L145.307 49.51L140.267 37.96H142.877ZM151.912 37.165H154.012V49H151.912V37.165ZM158.934 49.18C158.324 49.18 157.769 49.06 157.269 48.82C156.779 48.57 156.389 48.19 156.099 47.68C155.809 47.17 155.664 46.52 155.664 45.73C155.664 44.99 155.814 44.35 156.114 43.81C156.414 43.27 156.809 42.855 157.299 42.565C157.789 42.265 158.309 42.115 158.859 42.115C159.509 42.115 159.999 42.225 160.329 42.445C160.669 42.655 160.949 42.89 161.169 43.15L161.079 43.405L161.274 42.445H163.224V49H161.124V47.575L161.289 48.025C161.269 48.025 161.209 48.085 161.109 48.205C161.009 48.315 160.859 48.45 160.659 48.61C160.469 48.76 160.229 48.89 159.939 49C159.659 49.12 159.324 49.18 158.934 49.18ZM159.534 47.47C159.784 47.47 160.009 47.435 160.209 47.365C160.409 47.285 160.584 47.175 160.734 47.035C160.884 46.885 161.014 46.7 161.124 46.48V44.875C161.044 44.655 160.924 44.47 160.764 44.32C160.604 44.16 160.414 44.04 160.194 43.96C159.974 43.87 159.729 43.825 159.459 43.825C159.159 43.825 158.879 43.905 158.619 44.065C158.369 44.215 158.169 44.425 158.019 44.695C157.869 44.965 157.794 45.275 157.794 45.625C157.794 45.975 157.874 46.29 158.034 46.57C158.194 46.85 158.404 47.07 158.664 47.23C158.934 47.39 159.224 47.47 159.534 47.47ZM168.058 49.18C167.448 49.18 166.903 49.04 166.423 48.76C165.943 48.47 165.563 48.055 165.283 47.515C165.013 46.975 164.878 46.335 164.878 45.595C164.878 44.855 165.028 44.225 165.328 43.705C165.628 43.185 166.038 42.79 166.558 42.52C167.078 42.25 167.668 42.115 168.328 42.115C168.748 42.115 169.148 42.18 169.528 42.31C169.918 42.44 170.243 42.64 170.503 42.91V43.57V37.165H172.588V49H170.488V47.725L170.653 48.175C170.313 48.455 169.933 48.695 169.513 48.895C169.093 49.085 168.608 49.18 168.058 49.18ZM168.748 47.41C169.028 47.41 169.273 47.375 169.483 47.305C169.703 47.225 169.893 47.115 170.053 46.975C170.223 46.825 170.368 46.64 170.488 46.42V44.815C170.408 44.595 170.283 44.41 170.113 44.26C169.953 44.1 169.753 43.98 169.513 43.9C169.283 43.81 169.028 43.765 168.748 43.765C168.438 43.765 168.148 43.845 167.878 44.005C167.618 44.155 167.408 44.365 167.248 44.635C167.088 44.905 167.008 45.215 167.008 45.565C167.008 45.915 167.088 46.23 167.248 46.51C167.408 46.79 167.618 47.01 167.878 47.17C168.148 47.33 168.438 47.41 168.748 47.41ZM174.748 42.445H176.848V49H174.748V42.445ZM174.703 40.12C174.703 39.81 174.823 39.555 175.063 39.355C175.313 39.155 175.578 39.055 175.858 39.055C176.138 39.055 176.393 39.155 176.623 39.355C176.863 39.555 176.983 39.81 176.983 40.12C176.983 40.43 176.863 40.685 176.623 40.885C176.393 41.075 176.138 41.17 175.858 41.17C175.578 41.17 175.313 41.075 175.063 40.885C174.823 40.685 174.703 40.43 174.703 40.12ZM181.141 49.135C180.601 49.135 180.096 49.04 179.626 48.85C179.166 48.66 178.776 48.395 178.456 48.055L179.326 46.9C179.646 47.19 179.941 47.4 180.211 47.53C180.491 47.65 180.741 47.71 180.961 47.71C181.131 47.71 181.281 47.695 181.411 47.665C181.551 47.625 181.661 47.57 181.741 47.5C181.821 47.42 181.861 47.32 181.861 47.2C181.861 47.03 181.791 46.895 181.651 46.795C181.521 46.695 181.351 46.615 181.141 46.555C180.931 46.485 180.706 46.415 180.466 46.345C179.866 46.155 179.431 45.88 179.161 45.52C178.901 45.15 178.771 44.75 178.771 44.32C178.771 43.99 178.856 43.66 179.026 43.33C179.206 42.99 179.486 42.71 179.866 42.49C180.256 42.26 180.756 42.145 181.366 42.145C181.916 42.145 182.381 42.2 182.761 42.31C183.141 42.42 183.501 42.6 183.841 42.85L183.046 44.08C182.856 43.93 182.641 43.805 182.401 43.705C182.171 43.595 181.956 43.535 181.756 43.525C181.576 43.515 181.421 43.535 181.291 43.585C181.171 43.635 181.076 43.7 181.006 43.78C180.936 43.86 180.901 43.945 180.901 44.035C180.891 44.225 180.961 44.375 181.111 44.485C181.271 44.595 181.471 44.68 181.711 44.74C181.951 44.8 182.186 44.87 182.416 44.95C182.736 45.05 183.011 45.185 183.241 45.355C183.471 45.525 183.646 45.73 183.766 45.97C183.896 46.2 183.961 46.48 183.961 46.81C183.961 47.21 183.856 47.59 183.646 47.95C183.446 48.3 183.136 48.585 182.716 48.805C182.306 49.025 181.781 49.135 181.141 49.135ZM185.72 37.165H187.82V49H185.72V37.165ZM192.743 49.18C192.133 49.18 191.578 49.06 191.078 48.82C190.588 48.57 190.198 48.19 189.908 47.68C189.618 47.17 189.473 46.52 189.473 45.73C189.473 44.99 189.623 44.35 189.923 43.81C190.223 43.27 190.618 42.855 191.108 42.565C191.598 42.265 192.118 42.115 192.668 42.115C193.318 42.115 193.808 42.225 194.138 42.445C194.478 42.655 194.758 42.89 194.978 43.15L194.888 43.405L195.083 42.445H197.033V49H194.933V47.575L195.098 48.025C195.078 48.025 195.018 48.085 194.918 48.205C194.818 48.315 194.668 48.45 194.468 48.61C194.278 48.76 194.038 48.89 193.748 49C193.468 49.12 193.133 49.18 192.743 49.18ZM193.343 47.47C193.593 47.47 193.818 47.435 194.018 47.365C194.218 47.285 194.393 47.175 194.543 47.035C194.693 46.885 194.823 46.7 194.933 46.48V44.875C194.853 44.655 194.733 44.47 194.573 44.32C194.413 44.16 194.223 44.04 194.003 43.96C193.783 43.87 193.538 43.825 193.268 43.825C192.968 43.825 192.688 43.905 192.428 44.065C192.178 44.215 191.978 44.425 191.828 44.695C191.678 44.965 191.603 45.275 191.603 45.625C191.603 45.975 191.683 46.29 191.843 46.57C192.003 46.85 192.213 47.07 192.473 47.23C192.743 47.39 193.033 47.47 193.343 47.47ZM202.197 49.135L198.267 42.445H200.757L202.992 46.975L201.702 46.93L203.637 42.445H205.977L202.257 49.135H202.197Z" fill="#AC0091"/>
</svg>
